<svg width="140" height="200" viewBox="0 0 140 200" fill="none" xmlns="http://www.w3.org/2000/svg">
<path d="M46.9297 13.9911C47.7038 11.4933 48.9672 9.17449 50.6463 7.16983C52.3254 5.16518 54.3867 3.51473 56.7101 2.31464C61.8188 -0.318739 67.9072 -0.513609 73.4953 0.771481C79.0833 2.05657 84.2447 4.74789 89.1217 7.76048C91.8605 9.45111 94.5886 11.2997 96.4952 13.8752C100.013 18.5731 103.41 26.2205 103.595 32.0929C103.742 36.833 101.588 48.6411 99.4657 52.8861C98.7072 54.3977 96.9376 55.7354 94.8046 56.8573C92.5218 61.0596 89.5076 64.8211 85.9037 67.9649C84.8925 64.7521 83.8848 61.5394 82.8806 58.3267L46.9297 13.9911Z" fill="black"/>
<path d="M105.472 95.1839C107.78 83.7649 106.765 69.7021 106.403 59.9284C106.04 50.1548 107.653 45.9429 102.151 29.5808C98.0351 17.3251 91.2234 9.89288 84.7323 5.38574L58.5261 9.2038C58.7101 8.58504 58.8993 7.98737 59.0885 7.41782L49.7277 9.29521C46.2798 8.73269 43.9041 10.9335 42.238 14.4633C41.6699 15.3176 41.1827 16.2622 40.7873 17.2759C39.5469 20.5033 39.137 24.1666 38.7428 27.7527C38.3809 31.302 38.193 34.8793 38.1804 38.4615C38.1015 39.8678 38.0332 41.1264 37.9649 42.0897C37.8978 43.6518 37.9951 45.2187 38.254 46.7445C38.6376 61.8058 40.083 78.3859 38.7112 90.9088C38.564 92.2167 38.4327 93.6159 38.8636 94.8113C39.2946 96.0066 40.3195 96.8082 41.2761 97.4129C52.897 104.803 61.1173 95.9433 72.6016 88.1877C74.8406 86.6829 77.1269 84.8548 79.6288 84.9813C82.2568 85.1149 84.4642 94.3894 86.8925 95.8168" fill="black"/>
<path d="M93.509 29.7233C93.2088 22.6079 88.7689 16.6564 81.9221 14.6972L60.5811 8.59829C51.3169 7.329 44.7808 18.6051 43.9118 27.8904C42.9375 38.2344 42.2107 49.1576 43.2008 56.9261C45.1917 72.5473 57.0471 74.8911 57.0471 74.8911C57.0471 74.8911 56.8365 82.2909 56.7153 86.8308L67.0856 136.639L89.6115 84.6609L93.5616 29.8865C93.5722 29.6495 93.5248 30.0814 93.509 29.7233Z" fill="#38B6FF"/>
<path d="M77.835 69.9502C77.835 69.9502 72.4681 80.4837 56.9575 78.5508L57.0523 74.8904C64.3038 75.201 71.4989 73.4907 77.835 69.9502Z" fill="#00629A"/>
<path d="M48.5467 13.8119C49.5685 11.4998 52.1755 10.1673 54.6983 10.1252C57.2211 10.0831 59.6596 11.0943 61.8137 12.4215C70.92 18.0359 75.3072 31.0974 84.2975 36.8962C86.5096 38.3234 89.4748 37.1595 91.3392 39.0029C93.2036 40.8462 94.357 43.7798 93.23 46.1551C94.5098 44.5066 95.8054 42.8265 96.5586 40.8884C97.3117 38.9502 97.4697 36.6749 96.4743 34.821C95.7211 33.4254 94.3676 32.3404 94.0147 30.792C93.7145 29.4332 94.2886 28.0322 94.2728 26.6418C94.257 25.2513 93.625 23.8872 92.9614 22.6338C89.559 16.1925 84.7926 10.3201 78.5462 6.57013C74.4692 4.06097 69.7871 2.70658 65.0001 2.65166C60.1911 2.62592 55.5316 4.3223 51.8648 7.43388C49.7581 9.28251 47.5566 11.1943 48.5415 13.8119" fill="black"/>
<path d="M91.0599 40.9306C91.2337 40.4881 99.4288 37.7705 99.2919 46.4133C99.1549 54.7927 90.7544 52.9019 90.7439 52.6596C90.7334 52.4174 91.0599 40.9306 91.0599 40.9306Z" fill="#38B6FF"/>
<path d="M93.3879 49.5359C93.4247 49.5359 93.5301 49.6413 93.7776 49.7624C94.1226 49.9137 94.5121 49.9288 94.8678 49.8045C95.7579 49.4938 96.5321 48.1034 96.6006 46.5971C96.6376 45.876 96.5116 45.156 96.2319 44.4904C96.1601 44.2297 96.0271 43.9899 95.8439 43.7911C95.6606 43.5923 95.4325 43.4402 95.1786 43.3475C95.0116 43.2988 94.8329 43.3107 94.6739 43.381C94.5148 43.4514 94.3858 43.5757 94.3095 43.7319C94.1884 43.9637 94.2411 44.1322 94.1937 44.1427C94.1463 44.1533 94.0199 44.0005 94.0936 43.6582C94.1407 43.4486 94.26 43.2621 94.4307 43.1315C94.665 42.9627 94.9563 42.8927 95.2418 42.9367C95.5853 43.0094 95.9041 43.1699 96.1671 43.4025C96.4302 43.6351 96.6285 43.9319 96.7428 44.2639C97.0857 44.9958 97.2448 45.8003 97.2063 46.6076C97.1167 48.293 96.2214 49.8572 95.0048 50.1837C94.7792 50.2454 94.5426 50.2551 94.3127 50.2122C94.0829 50.1694 93.8657 50.075 93.6775 49.9362C93.3984 49.7413 93.3563 49.5517 93.3879 49.5359Z" fill="#00629A"/>
<path d="M94.5254 36.7175C94.3482 36.638 94.1804 36.5391 94.025 36.4226C93.7143 36.2119 93.2245 35.9275 92.6451 35.4904C91.0318 34.2347 89.5559 32.8118 88.2421 31.2454C86.3334 28.8998 84.5558 26.4506 82.9174 23.9088C81.0214 21.0805 78.941 17.952 76.255 15.1027C74.9374 13.7323 73.4752 12.5085 71.8941 11.4529C70.4158 10.4863 68.8237 9.70614 67.154 9.13022C64.32 8.12602 61.3208 7.67024 58.3164 7.78719C56.2805 7.84235 54.2611 8.17005 52.3123 8.76154C51.6171 8.95115 51.1062 9.16709 50.7322 9.28822C50.5633 9.3658 50.3868 9.42581 50.2056 9.46729C50.3743 9.37103 50.5504 9.28826 50.7322 9.21975C51.2464 8.98802 51.774 8.78752 52.3123 8.61934C54.2524 7.96293 56.2755 7.58349 58.3216 7.49225C61.3606 7.34095 64.4003 7.77544 67.2751 8.77208C68.9805 9.3511 70.608 10.1383 72.1206 11.1158C73.7279 12.1783 75.2133 13.4147 76.5499 14.8025C79.2518 17.715 81.3216 20.8751 83.2018 23.7086C84.8164 26.2578 86.5656 28.7192 88.4423 31.0821C89.7274 32.653 91.1633 34.0942 92.7294 35.385C93.2877 35.8327 93.7564 36.1382 94.0566 36.3699C94.221 36.4744 94.3777 36.5906 94.5254 36.7175Z" fill="#5E6E78"/>
<path d="M94.2992 51.0481C94.7113 50.9868 95.1312 51.085 95.4735 51.3225C95.8158 51.56 96.0548 51.919 96.1417 52.3264C96.2287 52.7339 96.1571 53.1591 95.9415 53.5157C95.726 53.8722 95.3827 54.1332 94.9815 54.2455C94.5803 54.3579 94.1513 54.3131 93.782 54.1203C93.4126 53.9276 93.1306 53.6013 92.9933 53.208C92.8561 52.8146 92.8738 52.3837 93.043 52.003C93.2122 51.6223 93.5202 51.3203 93.9042 51.1587" fill="white"/>
<path d="M93.9042 51.1585C93.536 51.4386 93.2622 51.8245 93.1194 52.2646C93.0526 52.4915 93.0441 52.7316 93.0948 52.9627C93.1454 53.1937 93.2535 53.4083 93.4091 53.5865C93.5898 53.8118 93.8332 53.9786 94.1085 54.0659C94.3838 54.1533 94.6788 54.1572 94.9564 54.0773C95.234 53.9973 95.4817 53.8371 95.6684 53.6167C95.8551 53.3963 95.9724 53.1256 96.0056 52.8386C96.0422 52.6048 96.0194 52.3655 95.9394 52.1428C95.8593 51.9201 95.7245 51.7211 95.5474 51.5641C95.1972 51.2614 94.7603 51.077 94.2992 51.0374C94.2992 51.0374 94.4308 50.9531 94.6942 50.9531C95.0795 50.9636 95.4503 51.1026 95.7475 51.3481C95.9763 51.527 96.1544 51.7625 96.2643 52.0313C96.3742 52.3001 96.4121 52.5929 96.3743 52.8808C96.3398 53.2397 96.1981 53.58 95.9676 53.8574C95.7371 54.1347 95.4284 54.3362 95.0818 54.4356C94.7351 54.5351 94.3666 54.5279 94.0241 54.4149C93.6816 54.302 93.381 54.0886 93.1615 53.8024C92.977 53.5792 92.8541 53.3114 92.8051 53.0259C92.7562 52.7404 92.7828 52.447 92.8824 52.175C92.9978 51.8138 93.2316 51.5021 93.546 51.2902C93.7462 51.1585 93.8936 51.1375 93.9042 51.1585Z" fill="black"/>
<path d="M92.3396 39.0291C92.4081 41.3201 92.4397 43.7375 91.3284 45.7389C90.2171 47.7403 87.51 49.0517 85.535 47.8456C83.9549 46.8713 83.5125 44.7804 83.2913 42.9265C82.6488 37.5702 82.4381 32.1665 81.7534 26.8154L92.3396 39.0291Z" fill="black"/>
<path d="M50.7271 9.88849C50.7271 9.93589 51.4697 9.76736 52.8338 9.76736C54.7313 9.78679 56.6059 10.1843 58.3481 10.9366C59.5522 11.4398 60.6982 12.072 61.7662 12.8221C62.9893 13.6976 64.1588 14.6455 65.2686 15.6609C67.8369 17.9659 70.1196 20.5705 72.068 23.4188C73.0897 24.9462 73.9851 26.5051 74.97 27.9588C75.8897 29.372 76.9734 30.6713 78.1985 31.8298C80.3141 33.7373 82.6435 35.3933 85.1401 36.7648C87.2468 37.9603 89.0164 38.803 90.2383 39.3982L91.6498 40.0513C91.8163 40.1385 91.9933 40.204 92.1765 40.2461C92.0315 40.1339 91.8742 40.0385 91.7077 39.9617L90.3121 39.2244C89.1218 38.5924 87.3785 37.7023 85.2981 36.4751C82.8539 35.0747 80.5704 33.4111 78.4882 31.5138C77.2886 30.3714 76.2279 29.0916 75.3281 27.7007C74.3643 26.2629 73.4689 24.6986 72.4367 23.1607C70.4768 20.2787 68.1663 17.6515 65.5583 15.3396C64.4262 14.3202 63.2318 13.3721 61.9821 12.5008C60.8803 11.751 59.7008 11.1223 58.4639 10.6258C56.6781 9.88409 54.7564 9.52525 52.8232 9.57249C52.3018 9.58902 51.7824 9.64536 51.2695 9.74102C51.0831 9.76668 50.9008 9.81624 50.7271 9.88849Z" fill="#5E6E78"/>
<path d="M28.8491 199.708L110.958 199.607L110.105 183.67L111.637 126.368L109.968 89.0423C103.121 86.2246 90.0647 81.8848 90.0647 81.8848C90.0647 81.8848 85.2246 93.5138 72.5791 93.5138C60.8184 93.5138 56.4417 83.212 56.4417 83.212L50.6167 85.5136C43.1577 86.741 35.8574 88.7899 28.8491 91.623L31.7564 131.477C31.7564 131.477 37.8658 165 36.8177 170.935C35.7696 176.871 28.8491 199.708 28.8491 199.708Z" fill="#9B55BC"/>
<g opacity="0.3">
<path d="M64.6106 142.078C63.9259 146.618 63.4308 151.843 66.5277 155.245C68.3184 157.199 70.9412 158.089 73.2691 159.348C78.0514 161.929 81.696 166.195 85.0088 170.487C88.3215 174.779 91.4342 179.34 95.5739 182.864C99.7136 186.387 105.133 188.842 110.51 188.078L109.389 177.365L81.5327 149.004L64.6106 142.078Z" fill="black"/>
</g>
<path d="M29.902 91.2393C29.902 91.2393 23.3555 93.4882 17.5093 105.491C13.9016 112.912 0.829502 158.159 0.339693 163.826C0.308093 164.184 0.339694 164.589 0.29756 165.032C-1.41414 180.832 13.7278 191.745 26.5524 183.234C30.3668 180.657 33.1989 176.867 34.5895 172.479L39.5402 157.163L29.902 91.2393Z" fill="#9B55BC"/>
<path d="M67.8649 165.211C67.8228 165.274 62.2242 161.866 55.3564 157.6C48.4885 153.334 42.9479 149.816 42.99 149.753C43.0321 149.69 48.6307 153.097 55.4985 157.369C62.3664 161.64 67.9018 165.148 67.8649 165.211Z" fill="black"/>
<path d="M109.968 89.042C109.968 89.042 125.589 92.0282 128.928 102.767C131.92 112.274 138.766 154.771 139.715 163.604C140.984 175.717 138.335 189.232 125.415 190.596C112.496 191.96 88.2056 169.623 88.2056 169.623L104.132 148.988L110.489 152.406L109.325 122.939L109.968 89.042Z" fill="#9B55BC"/>
<path d="M115.097 188.411L114.945 188.359L114.502 188.185C114.118 188.016 113.523 187.822 112.806 187.458C110.743 186.446 108.741 185.312 106.813 184.061C100.276 179.702 94.0368 174.913 88.1368 169.725L88.042 169.646L88.1157 169.546C90.075 167.013 92.1448 164.326 94.2726 161.561L104.053 148.921L104.116 148.837L104.211 148.884C107.745 150.686 110.931 152.508 113.77 154.151C116.609 155.794 119.079 157.264 121.144 158.491C123.208 159.718 124.799 160.708 125.884 161.388L127.142 162.178L127.458 162.383C127.532 162.43 127.569 162.457 127.564 162.462L127.448 162.399L127.116 162.209L125.842 161.461L121.049 158.623C118.989 157.416 116.504 155.958 113.675 154.335C110.847 152.713 107.64 150.907 104.111 149.116L104.269 149.079L94.5096 161.746L88.3475 169.725V169.541C94.2328 174.729 100.444 179.535 106.944 183.929C108.857 185.192 110.839 186.347 112.88 187.39C113.591 187.764 114.181 187.974 114.555 188.153L114.992 188.353C115.066 188.359 115.103 188.406 115.097 188.411Z" fill="black"/>
<path d="M32.5093 126.61C32.3955 126.621 32.2808 126.621 32.167 126.61L31.1715 126.499L27.4479 126.051L14.4706 124.382L14.6076 124.287C13.7122 127.384 12.7537 130.786 11.7793 134.357C9.67262 141.989 7.92932 148.93 6.7759 153.981C6.19655 156.509 5.76468 158.558 5.475 159.98C5.33807 160.675 5.22747 161.223 5.14847 161.618C5.1116 161.792 5.08 161.929 5.05893 162.039C5.05161 162.09 5.03743 162.14 5.0168 162.187C5.00938 162.136 5.00938 162.085 5.0168 162.034L5.08 161.607C5.14847 161.212 5.238 160.659 5.35387 159.959C5.61194 158.532 6.01748 156.472 6.57049 153.939C7.67651 148.872 9.40928 141.92 11.5002 134.283C12.4745 130.713 13.4384 127.31 14.3495 124.219L14.3811 124.113H14.4864L27.4637 125.857L31.1505 126.383L32.1406 126.536L32.5093 126.61Z" fill="black"/>
<path d="M35.5696 119.8C35.6486 119.8 36.0963 130.607 36.5598 143.943C37.0232 157.278 37.355 168.096 37.2813 168.101C37.2076 168.107 36.7546 157.294 36.2859 143.953C35.8172 130.612 35.4959 119.8 35.5696 119.8Z" fill="black"/>
<path d="M109.399 124.672C109.412 124.766 109.412 124.862 109.399 124.956V125.762C109.399 126.463 109.399 127.479 109.436 128.733C109.483 131.245 109.62 134.71 109.804 138.539C109.989 142.368 110.184 145.797 110.331 148.341C110.389 149.568 110.442 150.574 110.479 151.311C110.479 151.638 110.479 151.906 110.51 152.122C110.525 152.217 110.525 152.312 110.51 152.407C110.488 152.315 110.473 152.221 110.463 152.128L110.384 151.322C110.326 150.579 110.242 149.578 110.147 148.351C109.962 145.85 109.736 142.384 109.552 138.555C109.367 134.726 109.272 131.25 109.272 128.738C109.272 127.479 109.272 126.463 109.325 125.762C109.325 125.436 109.362 125.167 109.373 124.951C109.369 124.857 109.378 124.763 109.399 124.672Z" fill="black"/>
<path d="M120.365 100.403C120.428 100.445 117.821 104.617 114.545 109.731C111.269 114.845 108.562 118.948 108.499 118.905C108.435 118.863 111.037 114.692 114.318 109.583C117.6 104.475 120.302 100.403 120.365 100.403Z" fill="black"/>
<path d="M45.0468 92.6511C43.2411 92.5566 43.1567 91.5643 40.8934 94.2988C38.63 97.0333 39.427 100.57 36.0692 100.824C32.7114 101.077 31.2739 93.8064 30.992 93.1073C30.8745 92.7891 30.2134 90.8629 29.3352 88.3339C28.2763 85.2636 26.9171 81.3019 25.8467 78.2411C23.8971 72.6617 21.201 74.5609 21.201 74.5609L24.0346 90.5748C24.0346 90.5748 18.8975 78.3709 16.4854 75.5618C14.0733 72.7528 12.091 74.8212 12.091 74.8212L18.9747 92.13C18.9747 92.13 13.2213 82.2053 11.5747 79.3589C9.92814 76.5124 8.34156 76.4496 7.71828 77.2626C7.09501 78.0756 7.31364 79.8163 7.82923 81.2205C8.34482 82.6247 15.2835 95.7905 14.9521 95.7162C14.6206 95.642 8.56376 90.0216 6.89707 88.9775C5.23038 87.9333 3.70752 88.5274 3.34567 90.0323C2.98382 91.5372 14.642 104.046 14.642 104.046L18.7955 118.992L17.2787 124.523L33.1039 127.936L34.1869 119.601C34.1869 119.601 38.3019 114.452 39.9795 110.603C41.657 106.754 44.6442 96.6125 45.411 95.6281C46.1777 94.6437 46.8468 92.7504 45.0468 92.6511Z" fill="#38B6FF"/>
<path d="M34.6655 110.06C34.6655 110.06 34.3361 109.965 33.748 109.808C32.9202 109.585 32.0713 109.45 31.2153 109.405C30.6234 109.378 30.0305 109.388 29.4399 109.435C28.7345 109.521 28.0188 109.452 27.3429 109.233C26.6218 108.923 26.0015 108.418 25.552 107.775C25.0838 107.143 24.6666 106.42 24.2202 105.726C22.6894 103.332 20.8611 101.141 18.779 99.2073C17.9823 98.4692 17.3173 97.9025 16.8254 97.5165C16.57 97.3315 16.326 97.1313 16.0947 96.917C16.0947 96.917 16.1761 96.9513 16.3106 97.0383C16.445 97.1253 16.6436 97.2609 16.8854 97.4429C17.5851 97.9528 18.2584 98.498 18.9027 99.0763C21.042 100.981 22.9072 103.173 24.445 105.589C24.9062 106.295 25.2872 107.009 25.7574 107.62C26.1742 108.229 26.7528 108.71 27.428 109.009C28.0638 109.212 28.7361 109.277 29.3992 109.198C29.9981 109.159 30.599 109.161 31.1978 109.202C32.0661 109.266 32.9239 109.433 33.7534 109.697C34.0456 109.794 34.265 109.879 34.4177 109.941C34.5039 109.973 34.5869 110.013 34.6655 110.06Z" fill="#00629A"/>
<path d="M64.0305 114.519L64.731 150.817C64.7399 151.258 64.8355 151.692 65.0125 152.095C65.1894 152.499 65.4441 152.863 65.7621 153.168C66.0801 153.473 66.4551 153.712 66.8656 153.871C67.2761 154.031 67.714 154.108 68.1544 154.098L83.428 153.777C84.29 153.758 85.1116 153.408 85.7218 152.799C86.332 152.19 86.6838 151.369 86.7039 150.507L87.5835 114.535C87.594 114.088 87.5151 113.643 87.3516 113.228C87.188 112.812 86.9431 112.433 86.631 112.113C86.319 111.793 85.9462 111.539 85.5346 111.365C85.1229 111.191 84.6806 111.101 84.2338 111.101H67.3801C66.9344 111.1 66.4932 111.189 66.0823 111.362C65.6713 111.535 65.299 111.787 64.987 112.106C64.6751 112.424 64.4298 112.801 64.2655 113.216C64.1013 113.63 64.0214 114.073 64.0305 114.519Z" fill="black"/>
<path d="M77.4822 118.052C77.4822 118.332 77.3993 118.605 77.2439 118.837C77.0886 119.069 76.8678 119.25 76.6096 119.357C76.3514 119.463 76.0673 119.491 75.7934 119.436C75.5194 119.381 75.2679 119.246 75.0707 119.048C74.8735 118.85 74.7395 118.598 74.6857 118.324C74.6318 118.05 74.6605 117.766 74.7681 117.508C74.8758 117.25 75.0575 117.03 75.2903 116.876C75.5231 116.721 75.7966 116.64 76.0759 116.641C76.2613 116.64 76.4449 116.676 76.6161 116.747C76.7874 116.818 76.9429 116.922 77.0737 117.053C77.2045 117.184 77.308 117.34 77.3781 117.512C77.4482 117.683 77.4836 117.867 77.4822 118.052Z" fill="white"/>
<path d="M87.2256 122.845C87.2256 122.845 91.6076 128.027 93.2192 130.329C94.8308 132.631 95.4049 140.12 95.4049 140.12L96.4583 148.757L102.573 152.312L91.1072 166.764L81.685 157.969L72.6051 154.651C72.6051 154.651 66.4956 148.894 65.4581 146.224C64.8426 144.72 64.5294 143.109 64.5364 141.484C64.5364 141.484 61.6607 135.269 61.0814 133.057C60.5021 130.845 60.5073 126.953 60.5073 126.953C60.5073 126.953 62.119 126.49 63.5041 129.139L61.3131 124.651C61.3131 124.651 62.4666 121.196 65.4581 124.536C68.4496 127.875 73.4056 133.515 73.4056 133.515L79.0516 138.008L79.7415 137.202C79.7415 137.202 69.7347 124.994 69.9506 122.808C70.1666 120.622 72.2575 120.501 74.4432 122.808C76.6289 125.115 85.614 136.628 86.7674 136.744C87.9208 136.86 88.2632 135.248 88.2632 135.248L87.4574 130.871L86.9992 129.95L87.2256 122.845Z" fill="#38B6FF"/>
<path d="M71.694 141.046C71.5428 140.92 71.4067 140.777 71.2885 140.619C71.0409 140.33 70.6933 139.903 70.2773 139.371C69.4398 138.318 68.3233 136.801 67.1593 135.095C65.9954 133.388 65 131.798 64.3153 130.628C63.9729 130.044 63.7043 129.575 63.5253 129.233C63.4217 129.067 63.3369 128.89 63.2725 128.706C63.4075 128.851 63.5242 129.012 63.6201 129.185L64.5049 130.528C65.2317 131.666 66.2429 133.235 67.4069 134.942C68.5708 136.648 69.6558 138.16 70.4511 139.255L71.3938 140.551C71.5102 140.706 71.6108 140.871 71.694 141.046Z" fill="#00629A"/>
<path d="M68.9923 146.819C68.0154 145.692 67.1062 144.509 66.2694 143.275C65.3625 142.098 64.5288 140.867 63.7729 139.588C64.7498 140.715 65.6591 141.898 66.4959 143.132C67.4063 144.306 68.2402 145.538 68.9923 146.819Z" fill="#00629A"/>
</svg>
