<svg width="198" height="40" viewBox="0 0 198 40" fill="none" xmlns="http://www.w3.org/2000/svg">
<path d="M49.2125 35.8963V2.16315H53.4064V31.8522H69.9895V35.8963H49.2125Z" fill="white"/>
<path d="M79.4354 6.04675C78.9218 6.54692 78.2933 6.79566 77.5524 6.79566C76.8088 6.79566 76.1883 6.53889 75.6908 6.02535C75.1986 5.50646 74.9526 4.89128 74.9526 4.18516C74.9526 3.4523 75.2093 2.82107 75.7229 2.29148C76.2364 1.75654 76.8463 1.48907 77.5524 1.48907C78.2933 1.48907 78.9218 1.75654 79.4354 2.29148C79.9489 2.82107 80.2057 3.45497 80.2057 4.19586C80.2057 4.9314 79.9489 5.54926 79.4354 6.04675ZM75.4768 35.8963V11.2677H79.6707V35.8963H75.4768Z" fill="white"/>
<path d="M94.9495 36.4741C93.1789 36.4741 91.4992 36.0943 89.9104 35.34C88.319 34.5858 87.0271 33.5827 86.0375 32.3337L89.0224 29.7767C90.8546 31.7399 92.8633 32.7188 95.0458 32.7188C96.4286 32.7188 97.5386 32.4567 98.3731 31.9271C99.2077 31.3922 99.6249 30.6112 99.6249 29.5841C99.6249 28.8138 99.3173 28.1157 98.7048 27.4871C98.0977 26.8612 97.4745 26.3958 96.8325 26.0963C96.1906 25.7914 95.2411 25.3955 93.9867 24.9087C91.4831 23.9753 89.5841 22.9294 88.2949 21.774C87.0111 20.6185 86.3691 19.0939 86.3691 17.1949C86.3691 15.2049 87.1448 13.6269 88.7015 12.4554C90.2635 11.2785 92.2481 10.6901 94.6607 10.6901C98.0977 10.6901 100.861 11.9284 102.952 14.4025L100.053 16.8098C98.547 15.2424 96.7309 14.456 94.6072 14.456C93.3581 14.456 92.3631 14.6994 91.6222 15.1835C90.8867 15.6623 90.5203 16.3337 90.5203 17.1949C90.5203 17.6817 90.6379 18.1257 90.8733 18.5323C91.114 18.9335 91.55 19.3106 92.1786 19.6663C92.8044 20.0167 93.3019 20.2815 93.6657 20.458C94.0348 20.6292 94.7195 20.9074 95.7199 21.2925C98.3223 22.2287 100.304 23.2905 101.668 24.4808C103.038 25.6657 103.723 27.3347 103.723 29.4878C103.723 31.6703 102.933 33.3821 101.358 34.6232C99.78 35.8589 97.6456 36.4741 94.9495 36.4741Z" fill="white"/>
<path d="M116.919 36.4741C113.453 36.4741 111.72 34.5162 111.72 30.6004V14.9374H107.719V11.2678H111.72V3.12601L115.914 1.10394V11.2678H121.98V14.9374H115.914V29.1989C115.914 30.2902 116.088 31.1247 116.438 31.7024C116.794 32.2801 117.47 32.569 118.471 32.569C119.562 32.569 120.782 32.1384 122.13 31.2745L121.648 35.3614C120.236 36.1023 118.658 36.4741 116.919 36.4741Z" fill="white"/>
<path d="M137.789 36.4741C134.45 36.4741 131.792 35.2812 129.818 32.89C127.841 30.4935 126.854 27.3855 126.854 23.5607C126.854 19.546 127.849 16.3979 129.839 14.1137C131.829 11.8322 134.477 10.6901 137.789 10.6901C140.741 10.6901 143.173 11.6797 145.085 13.6536C146.995 15.6302 147.952 18.5483 147.952 22.4052C147.952 23.3039 147.904 24.2347 147.813 25.1976H131.145C131.3 27.4443 131.995 29.2524 133.231 30.6219C134.472 31.986 136.023 32.6653 137.885 32.6653C139.939 32.6653 141.707 31.9271 143.191 30.4507L145.738 33.2966C143.619 35.4149 140.969 36.4741 137.789 36.4741ZM131.091 21.6349H143.716C143.686 19.0966 143.084 17.2564 141.908 16.1143C140.736 14.9749 139.364 14.4025 137.789 14.4025C135.889 14.4025 134.333 15.007 133.113 16.2106C131.893 17.4169 131.219 19.225 131.091 21.6349Z" fill="white"/>
<path d="M154.46 35.8963V3.08321L158.654 1.10394V35.8963H154.46Z" fill="white"/>
<path d="M167.086 35.8963V3.08321L171.28 1.10394V35.8963H167.086Z" fill="white"/>
<path d="M193.599 35.8964V33.6282C191.572 35.5272 189.239 36.4741 186.602 36.4741C184.005 36.4741 181.927 35.7626 180.365 34.3343C178.808 32.9007 178.032 30.8546 178.032 28.1932C178.032 25.5266 178.912 23.5018 180.675 22.1163C182.443 20.7335 184.628 20.0408 187.233 20.0408C189.608 20.0408 191.729 20.573 193.599 21.6349V19.9017C193.599 17.8422 193.139 16.4032 192.219 15.5901C191.304 14.7716 189.983 14.3597 188.25 14.3597C185.773 14.3597 183.376 15.1782 181.06 16.8098L179.862 13.3006C182.494 11.562 185.463 10.6901 188.774 10.6901C194.621 10.6901 197.547 13.6483 197.547 19.5593V35.8964H193.599ZM187.233 32.7616C189.643 32.7616 191.764 31.6864 193.599 29.5306V25.2939C191.828 24.2026 189.9 23.657 187.811 23.657C186.105 23.657 184.708 24.0421 183.617 24.8124C182.526 25.5827 181.98 26.7061 181.98 28.1825C181.98 29.568 182.435 30.6754 183.35 31.5099C184.27 32.3444 185.564 32.7616 187.233 32.7616Z" fill="white"/>
<path d="M19.9987 0C8.95219 0 0 8.95486 0 19.9987C0 31.0451 8.95219 40 19.9987 40C31.0451 40 40 31.0451 40 19.9987C40 8.95486 31.0451 0 19.9987 0ZM30.9328 22.347L19.9987 33.2812L9.06453 22.347C6.2454 19.5279 6.2454 14.9542 9.06453 12.1351C11.8863 9.31327 16.4574 9.31327 19.2792 12.1351L19.9987 12.7663L20.7182 12.1351C23.54 9.31327 28.1137 9.31327 30.9328 12.1351C33.7546 14.9542 33.7546 19.5279 30.9328 22.347Z" fill="white"/>
</svg>
