<svg width="536" height="529" viewBox="0 0 536 529" fill="none" xmlns="http://www.w3.org/2000/svg">
<path d="M147.691 157.917C147.302 157.941 146.912 157.912 146.53 157.831C145.485 157.679 144.452 157.448 143.442 157.139C141.937 156.686 140.477 156.095 139.081 155.372C137.375 154.475 135.762 153.411 134.264 152.198C132.789 150.963 131.436 149.59 130.224 148.096C129.251 146.863 128.391 145.544 127.655 144.156C127.162 143.229 126.749 142.262 126.42 141.265C126.27 140.905 126.166 140.527 126.111 140.141C126.222 140.141 126.778 141.661 128.1 143.933C128.876 145.261 129.755 146.525 130.731 147.713C131.941 149.158 133.276 150.494 134.721 151.703C136.184 152.892 137.751 153.946 139.403 154.854C140.762 155.577 142.174 156.196 143.627 156.706C146.086 157.559 147.691 157.794 147.691 157.917Z" fill="#FAFAFA"/>
<path d="M271.58 92.6196C272.309 87.3696 264.897 83.0584 259.338 82.6137C256.682 82.3914 253.928 82.799 251.408 81.9219C245.96 80.0319 243.786 72.9908 238.474 70.8043C234.496 69.1366 229.926 70.619 226.121 72.5584C222.316 74.4978 218.462 76.9437 214.151 77.2155C210.445 77.4625 206.344 76.0666 203.033 77.8949C200.563 79.2661 199.327 82.0702 197.067 83.7378C194.806 85.4055 191.99 85.702 189.26 85.8502C186.53 85.9984 183.701 86.0231 181.218 87.1596C178.735 88.2961 176.672 90.9273 177.191 93.6202L271.58 92.6196Z" fill="#E9F7FF"/>
<path d="M217.029 36.7221C218.178 28.3962 206.43 21.5526 197.597 20.8362C193.397 20.5026 189.025 21.145 185.035 19.7491C176.387 16.735 172.941 5.58024 164.504 2.02258C158.204 -0.633308 150.916 1.72611 144.838 4.802C138.76 7.87789 132.683 11.7567 125.864 12.2138C119.922 12.5967 113.511 10.3855 108.273 13.2885C104.407 15.4503 102.381 19.9097 98.8108 22.5409C95.2408 25.1721 90.7566 25.6662 86.4578 25.9009C82.159 26.1356 77.6378 26.185 73.6972 27.9885C69.7566 29.7921 66.483 33.9674 67.3107 38.2291L217.029 36.7221Z" fill="#F5F5F5"/>
<path d="M444.163 40.1934C444.979 34.3134 436.677 29.471 430.439 28.9646C427.462 28.7299 424.374 29.1869 421.557 28.1987C415.443 26.074 413.009 18.1804 407.055 15.6728C402.596 13.7951 397.469 15.4628 393.146 17.6369C388.822 19.811 384.56 22.5781 379.743 22.8622C375.543 23.1216 370.984 21.6269 367.316 23.6157C364.573 25.1475 363.14 28.2975 360.62 30.1628C358.1 32.0281 354.938 32.3616 351.874 32.5346C348.811 32.7075 345.698 32.7322 342.857 34.0046C340.015 35.2769 337.767 38.2293 338.348 41.2434L444.163 40.1934Z" fill="#F5F5F5"/>
<path d="M535.946 136.25C536.749 130.37 528.448 125.527 522.21 125.021C519.245 124.786 516.157 125.243 513.328 124.255C507.225 122.13 504.792 114.237 498.825 111.729C494.378 109.851 489.252 111.519 484.928 113.693C480.605 115.867 476.343 118.634 471.513 118.918C467.325 119.178 462.767 117.621 459.098 119.672C456.356 121.204 454.923 124.354 452.403 126.219C449.883 128.084 446.721 128.418 443.657 128.591C440.593 128.764 437.481 128.788 434.639 130.061C431.798 131.333 429.55 134.285 430.131 137.3L535.946 136.25Z" fill="#FAFAFA"/>
<path d="M80.3191 60.2417C80.7761 56.9682 76.1561 54.2752 72.6973 54.0652C71.0386 54.1277 69.3787 53.9825 67.7561 53.6329C64.359 52.3976 63.0002 48.074 59.6896 46.6658C57.219 45.6281 54.3655 46.5546 51.969 47.7652C49.5725 48.9758 47.1884 50.4952 44.5572 50.6682C42.2349 50.8164 39.7025 49.9517 37.6519 51.0881C36.1325 51.9405 35.3419 53.6946 33.946 54.7199C32.4907 55.6232 30.8036 56.0825 29.0913 56.0417C27.3837 56.0035 25.6836 56.2799 24.076 56.857C23.2878 57.176 22.6227 57.7392 22.178 58.464C21.7334 59.1887 21.5327 60.0369 21.6054 60.8841L80.3191 60.2417Z" fill="#EBEEEF"/>
<path d="M386.241 357.405C375.333 347.288 358.607 345.608 344.24 349.413C329.874 353.218 319.67 359.456 307.33 367.769C301.796 372.044 295.199 371.809 294.001 377.516C292.803 383.223 296.002 389.177 300.647 392.71C305.292 396.243 311.159 397.725 316.916 398.652C338.78 402.118 361.179 398.558 380.892 388.485C385.734 386.015 390.663 382.815 392.738 377.788C395.604 370.821 391.812 362.569 386.241 357.405Z" fill="#D6A273"/>
<path d="M219.599 301.36C217.622 301.36 215.572 301.471 213.583 301.36L213.978 301.446L173.213 300.656C170.471 300.594 167.111 300.903 165.962 303.398C165.645 304.26 165.583 305.196 165.785 306.092C165.986 306.988 166.443 307.807 167.099 308.451C168.423 309.719 170.014 310.677 171.756 311.255C186.703 317.271 203.478 318.16 219.265 314.961C221.4 314.637 223.451 313.903 225.306 312.799C226.228 312.237 226.993 311.451 227.529 310.513C228.064 309.575 228.354 308.517 228.369 307.438C228.209 303.534 223.527 301.496 219.599 301.36Z" fill="#D6A273"/>
<path d="M245.922 315.145C243.946 315.368 241.945 315.85 239.968 316.084H240.376L199.994 321.408C197.276 321.767 193.99 322.582 193.237 325.213C193.054 326.112 193.133 327.045 193.463 327.901C193.794 328.757 194.363 329.5 195.102 330.043C196.61 331.096 198.33 331.804 200.142 332.118C215.818 335.824 232.544 334.194 247.664 328.635C249.726 327.999 251.644 326.967 253.309 325.596C254.138 324.904 254.777 324.012 255.166 323.005C255.555 321.998 255.681 320.909 255.533 319.84C254.755 315.998 249.826 314.676 245.922 315.145Z" fill="#D6A273"/>
<path d="M307.046 332.428C303.48 330.011 299.435 328.393 295.187 327.684C278.004 324.065 261.451 328.129 243.663 333.922C236.764 335.24 230.147 337.748 224.108 341.334C221.822 342.569 220.525 346.275 220.007 348.82C219.858 350.078 220.078 351.353 220.639 352.488C221.2 353.624 222.079 354.573 223.169 355.219C225.375 356.465 227.814 357.243 230.334 357.504C250.963 360.988 272.161 362.211 292.803 358.739C297.373 357.986 302.006 356.961 305.922 354.49C309.837 352.019 312.95 347.857 313.012 343.224C313.037 338.999 310.455 334.997 307.046 332.428Z" fill="#D6A273"/>
<path d="M459.567 392.599L460.481 392.945L461.161 393.105L459.567 392.599Z" fill="#EBEBEB"/>
<path d="M489.436 409.436C481.778 401.246 471.018 396.836 460.481 392.945C424.892 384.075 385.054 392.945 357.062 416.761C352.973 420.232 348.823 424.803 349.354 430.14C350.169 438.243 360.36 441.121 368.451 442.011L454.687 451.547C461.914 452.338 469.252 453.141 476.429 451.93C483.606 450.72 490.696 447.236 494.649 441.134C500.912 431.449 497.281 417.861 489.436 409.436Z" fill="#D6A273"/>
<path d="M461.161 393.056L472.896 396.762C469.058 395.306 465.14 394.068 461.161 393.056Z" fill="#EBEBEB"/>
<path d="M529.918 431.227C527.771 429.803 525.19 429.181 522.629 429.473L524.087 429.078C521.759 429.319 519.531 430.149 517.612 431.489C515.693 432.828 514.147 434.634 513.118 436.736C512.08 438.898 511.709 441.678 513.118 443.568C514.761 445.804 517.985 446.038 520.752 445.804C523.443 445.737 526.091 445.119 528.534 443.988C529.746 443.408 530.799 442.543 531.604 441.468C532.408 440.392 532.94 439.137 533.154 437.811C533.233 436.527 532.975 435.245 532.408 434.091C531.84 432.936 530.982 431.949 529.918 431.227Z" fill="#D6A273"/>
<path d="M21.4945 293.058L21.2969 203.882L212.546 141.969L212.743 183.166L330.306 209.145V293.058H21.4945Z" fill="#C1E8FF"/>
<path d="M0 212.134V200.572L156.846 148.442L155.499 160.437L0 212.134Z" fill="black"/>
<path d="M28.2267 293.059C28.1278 293.059 28.0537 272.751 28.0537 247.711C28.0537 222.672 28.1278 202.363 28.2267 202.363C28.3255 202.363 28.3996 222.659 28.3996 247.711C28.3996 272.763 28.3255 293.059 28.2267 293.059Z" fill="black"/>
<path d="M36.1944 293.059C36.0956 293.059 36.0215 272.059 36.0215 246.117C36.0215 220.176 36.0956 199.238 36.1944 199.238C36.2933 199.238 36.3674 220.238 36.3674 246.117C36.3674 271.997 36.2933 293.059 36.1944 293.059Z" fill="black"/>
<path d="M43.6676 293.059C43.5687 293.059 43.4946 271.565 43.4946 245.055C43.4946 218.546 43.5687 197.039 43.6676 197.039C43.7664 197.039 43.8405 218.533 43.8405 245.055C43.8405 271.577 43.7664 293.059 43.6676 293.059Z" fill="black"/>
<path d="M51.1412 293.058C51.0424 293.058 50.9683 271.132 50.9683 244.091C50.9683 217.05 51.0424 195.111 51.1412 195.111C51.24 195.111 51.3142 217.038 51.3142 244.091C51.3142 271.144 51.24 293.058 51.1412 293.058Z" fill="black"/>
<path d="M58.6148 293.058C58.516 293.058 58.4419 270.588 58.4419 242.868C58.4419 215.148 58.516 192.678 58.6148 192.678C58.7137 192.678 58.7507 215.173 58.7507 242.868C58.7507 270.564 58.7507 293.058 58.6148 293.058Z" fill="black"/>
<path d="M66.0885 293.058C65.9896 293.058 65.9155 269.909 65.9155 241.349C65.9155 212.789 65.9896 189.627 66.0885 189.627C66.1873 189.627 66.2614 212.776 66.2614 241.349C66.2614 269.921 66.1626 293.058 66.0885 293.058Z" fill="black"/>
<path d="M73.5738 293.058C73.4873 293.058 73.4009 269.501 73.4009 240.459C73.4009 211.418 73.4873 187.848 73.5738 187.848C73.6603 187.848 73.7468 211.405 73.7468 240.459C73.7468 269.514 73.6603 293.058 73.5738 293.058Z" fill="black"/>
<path d="M80.9859 293.058C80.8995 293.058 80.813 269.032 80.813 239.397C80.813 209.762 80.8995 185.736 80.9859 185.736C81.0724 185.736 81.1712 209.75 81.1712 239.397C81.1712 269.044 81.1342 293.058 80.9859 293.058Z" fill="black"/>
<path d="M88.5212 293.058C88.4224 293.058 88.3359 268.451 88.3359 238.112C88.3359 207.773 88.4224 183.154 88.5212 183.154C88.6201 183.154 88.6942 207.749 88.6942 238.112C88.6942 268.476 88.6077 293.058 88.5212 293.058Z" fill="black"/>
<path d="M95.9952 293.059C95.8964 293.059 95.8223 267.92 95.8223 236.914C95.8223 205.908 95.8964 180.77 95.9952 180.77C96.094 180.77 96.1681 205.896 96.1681 236.914C96.1681 267.933 96.0817 293.059 95.9952 293.059Z" fill="black"/>
<path d="M103.468 293.058C103.37 293.058 103.295 267.451 103.295 235.864C103.295 204.278 103.37 178.67 103.468 178.67C103.567 178.67 103.641 204.278 103.641 235.864C103.641 267.451 103.567 293.058 103.468 293.058Z" fill="black"/>
<path d="M110.942 293.058C110.844 293.058 110.77 266.895 110.77 234.629C110.77 202.363 110.844 176.199 110.942 176.199C111.041 176.199 111.115 202.35 111.115 234.629C111.115 266.907 111.041 293.058 110.942 293.058Z" fill="black"/>
<path d="M118.416 293.059C118.317 293.059 118.243 266.339 118.243 233.381C118.243 200.424 118.317 173.692 118.416 173.692C118.514 173.692 118.589 200.411 118.589 233.381C118.589 266.352 118.514 293.059 118.416 293.059Z" fill="black"/>
<path d="M125.889 293.058C125.79 293.058 125.716 265.882 125.716 232.368C125.716 198.854 125.79 171.678 125.889 171.678C125.988 171.678 126.062 198.854 126.062 232.368C126.062 265.882 125.988 293.058 125.889 293.058Z" fill="black"/>
<path d="M133.362 293.059C133.264 293.059 133.189 265.277 133.189 230.997C133.189 196.718 133.264 168.936 133.362 168.936C133.461 168.936 133.535 196.718 133.535 230.997C133.535 265.277 133.461 293.059 133.362 293.059Z" fill="black"/>
<path d="M140.837 293.058C140.738 293.058 140.664 264.77 140.664 229.873C140.664 194.975 140.738 166.675 140.837 166.675C140.935 166.675 141.009 194.963 141.009 229.873C141.009 264.782 140.935 293.058 140.837 293.058Z" fill="black"/>
<path d="M148.31 293.058C148.211 293.058 148.137 264.276 148.137 228.823C148.137 193.37 148.211 164.587 148.31 164.587C148.408 164.587 148.483 193.357 148.483 228.823C148.483 264.288 148.408 293.058 148.31 293.058Z" fill="black"/>
<path d="M73.5987 224.548H41.271V256.876H73.5987V224.548Z" fill="#F9F9FA"/>
<path d="M73.9446 257.174H40.9375V224.216H73.9446V257.174ZM41.6046 256.506H73.2652V224.883H41.6046V256.506Z" fill="black"/>
<path d="M133.56 224.548H101.232V256.876H133.56V224.548Z" fill="#F9F9FA"/>
<path d="M133.894 257.174H100.899V224.216H133.894V257.174ZM101.566 256.506H133.227V224.883H101.566V256.506Z" fill="black"/>
<path d="M205.924 143.662L205.257 293.059H330.306V209.145L212.743 183.167V141.043L205.924 143.662Z" fill="#5E6E78"/>
<path d="M212.743 183.167V174.804L351.318 206.464V214.531L212.743 183.167Z" fill="black"/>
<path d="M303.933 235.98L231.36 235.638L231.09 292.992L303.662 293.334L303.933 235.98Z" fill="black"/>
<path d="M231.186 291.218C231.186 291.156 247.405 291.143 267.405 291.218C287.404 291.292 303.636 291.329 303.636 291.378C303.636 291.428 287.417 291.452 267.405 291.378C247.393 291.304 231.186 291.267 231.186 291.218Z" fill="#5E6E78"/>
<path d="M231.346 288.463C231.346 288.401 247.566 288.389 267.565 288.463C287.565 288.537 303.796 288.574 303.796 288.636C303.796 288.697 287.577 288.71 267.565 288.636C247.553 288.562 231.346 288.524 231.346 288.463Z" fill="#5E6E78"/>
<path d="M231.507 285.721C231.507 285.659 247.726 285.647 267.726 285.721C287.725 285.795 303.957 285.832 303.957 285.894C303.957 285.956 287.738 285.968 267.726 285.894C247.714 285.82 231.507 285.77 231.507 285.721Z" fill="#5E6E78"/>
<path d="M231.173 282.879C231.173 282.817 247.38 282.805 267.392 282.879C287.404 282.953 303.611 282.99 303.611 283.052C303.611 283.114 287.392 283.126 267.392 283.052C247.393 282.978 231.173 282.929 231.173 282.879Z" fill="#5E6E78"/>
<path d="M231.173 280.421C231.173 280.359 247.393 280.347 267.405 280.421C287.416 280.495 303.624 280.532 303.624 280.594C303.624 280.655 287.404 280.668 267.405 280.594C247.405 280.519 231.173 280.482 231.173 280.421Z" fill="#5E6E78"/>
<path d="M231.198 277.493C231.198 277.432 247.417 277.419 267.417 277.493C287.416 277.568 303.636 277.605 303.636 277.654C303.636 277.703 287.428 277.728 267.417 277.654C247.405 277.58 231.198 277.543 231.198 277.493Z" fill="#5E6E78"/>
<path d="M231.21 274.739C231.21 274.677 247.43 274.653 267.429 274.739C287.429 274.826 303.648 274.863 303.648 274.912C303.648 274.961 287.441 274.986 267.429 274.912C247.418 274.838 231.21 274.788 231.21 274.739Z" fill="#5E6E78"/>
<path d="M231.223 271.997C231.223 271.935 247.443 271.923 267.442 271.997C287.442 272.071 303.661 272.108 303.661 272.17C303.661 272.232 287.454 272.244 267.442 272.17C247.43 272.096 231.223 271.997 231.223 271.997Z" fill="#5E6E78"/>
<path d="M231.235 269.279C231.235 269.217 247.455 269.204 267.454 269.279C287.454 269.353 303.673 269.39 303.673 269.452C303.673 269.513 287.466 269.526 267.454 269.452C247.442 269.377 231.235 269.34 231.235 269.279Z" fill="#5E6E78"/>
<path d="M231.248 266.524C231.248 266.462 247.468 266.45 267.467 266.524C287.466 266.598 303.686 266.635 303.686 266.697C303.686 266.758 287.479 266.771 267.467 266.697C247.455 266.623 231.248 266.573 231.248 266.524Z" fill="#5E6E78"/>
<path d="M231.26 263.782C231.26 263.782 247.479 263.695 267.479 263.782C287.478 263.868 303.71 263.905 303.698 263.955C303.685 264.004 287.491 264.029 267.479 263.955C247.467 263.88 231.26 263.831 231.26 263.782Z" fill="#5E6E78"/>
<path d="M231.272 261.039C231.272 261.039 247.491 260.965 267.491 261.039C287.49 261.113 303.722 261.15 303.722 261.212C303.722 261.274 287.503 261.286 267.491 261.212C247.479 261.138 231.272 261.101 231.272 261.039Z" fill="#5E6E78"/>
<path d="M231.285 258.335C231.285 258.273 247.504 258.261 267.504 258.335C287.503 258.409 303.735 258.446 303.735 258.508C303.735 258.569 287.515 258.582 267.504 258.508C247.492 258.434 231.285 258.409 231.285 258.335Z" fill="#5E6E78"/>
<path d="M231.297 255.691C231.297 255.629 247.516 255.605 267.516 255.691C287.515 255.778 303.747 255.815 303.747 255.864C303.747 255.914 287.528 255.938 267.516 255.864C247.504 255.79 231.297 255.741 231.297 255.691Z" fill="#5E6E78"/>
<path d="M231.31 252.936C231.31 252.936 247.529 252.862 267.528 252.936C287.528 253.01 303.76 253.059 303.76 253.109C303.76 253.158 287.54 253.183 267.528 253.109C247.517 253.035 231.31 252.998 231.31 252.936Z" fill="#5E6E78"/>
<path d="M231.322 250.231C231.322 250.231 247.542 250.157 267.541 250.231C287.541 250.305 303.772 250.342 303.772 250.391C303.772 250.441 287.553 250.478 267.541 250.391C247.529 250.305 231.322 250.28 231.322 250.231Z" fill="#5E6E78"/>
<path d="M231.334 247.291C231.334 247.291 247.553 247.217 267.553 247.291C287.552 247.365 303.784 247.402 303.784 247.464C303.784 247.525 287.565 247.538 267.553 247.464C247.541 247.39 231.334 247.291 231.334 247.291Z" fill="#5E6E78"/>
<path d="M231.346 244.499C231.346 244.437 247.566 244.425 267.577 244.499C287.589 244.573 303.796 244.61 303.796 244.672C303.796 244.734 287.577 244.746 267.577 244.672C247.578 244.598 231.346 244.561 231.346 244.499Z" fill="#5E6E78"/>
<path d="M231.359 241.756C231.359 241.694 247.578 241.682 267.59 241.756C287.602 241.83 303.809 241.867 303.809 241.929C303.809 241.991 287.59 242.003 267.59 241.929C247.591 241.855 231.359 241.818 231.359 241.756Z" fill="#5E6E78"/>
<path d="M231.372 239.002C231.372 239.002 247.591 238.928 267.603 239.002C287.615 239.076 303.822 239.113 303.822 239.175C303.822 239.236 287.602 239.249 267.603 239.175C247.603 239.101 231.372 239.063 231.372 239.002Z" fill="#5E6E78"/>
<path d="M231.396 236.383C231.396 236.383 247.615 236.309 267.627 236.383C287.639 236.457 303.846 236.494 303.846 236.544C303.846 236.593 287.627 236.63 267.627 236.544C247.628 236.457 231.396 236.432 231.396 236.383Z" fill="#5E6E78"/>
<path d="M205.257 285.079H155.499V152.902L205.924 139.894L205.257 285.079Z" fill="#C1E8FF"/>
<g opacity="0.3">
<path d="M205.257 284.856L155.499 285.079V152.902L205.924 139.894L205.257 284.856Z" fill="black"/>
</g>
<path d="M198.599 283.114C198.599 283.114 198.599 283.003 198.599 282.806C198.599 282.608 198.599 282.312 198.599 281.929V278.532C198.599 275.567 198.599 271.243 198.599 265.808C198.599 254.925 198.599 239.546 198.525 221.523L198.686 221.683H162.862L163.035 221.51C163.035 244.981 163.035 266.561 163.035 283.102L162.899 282.966L188.976 283.028H196.141H198.019H198.673H196.203H189.063L162.899 283.09H162.763V283.114C162.763 266.574 162.763 245.03 162.763 221.523V221.35H198.871V221.51C198.871 239.583 198.809 254.987 198.797 265.894C198.797 271.33 198.797 275.629 198.797 278.593C198.797 280.051 198.797 281.175 198.797 281.953C198.797 282.324 198.797 282.608 198.797 282.806C198.738 282.913 198.672 283.016 198.599 283.114Z" fill="black"/>
<path d="M208.568 283.077H155.734V293.071H208.568V283.077Z" fill="black"/>
<path d="M205.924 145.07C206.023 145.07 205.924 175.693 205.788 213.456C205.653 251.219 205.393 281.855 205.307 281.855C205.22 281.855 205.307 251.232 205.443 213.456C205.578 175.681 205.838 145.07 205.924 145.07Z" fill="black"/>
<path d="M208.642 287.932C208.642 288.031 196.795 288.105 182.194 288.105C167.593 288.105 155.734 288.031 155.734 287.932C155.734 287.833 167.58 287.759 182.194 287.759C196.808 287.759 208.642 287.846 208.642 287.932Z" fill="#5E6E78"/>
<path d="M205.38 217.026C205.38 217.026 194.263 217.1 180.563 217.1C166.864 217.1 155.734 217.1 155.734 217.026C155.734 216.952 166.852 216.952 180.563 216.952C194.275 216.952 205.38 216.989 205.38 217.026Z" fill="#F9F9FA"/>
<path d="M205.38 211.541C205.38 211.541 194.263 211.615 180.563 211.615C166.864 211.615 155.734 211.615 155.734 211.541C155.734 211.467 166.852 211.479 180.563 211.479C194.275 211.479 205.38 211.467 205.38 211.541Z" fill="#F9F9FA"/>
<path d="M205.38 206.069C205.38 206.069 194.263 206.143 180.563 206.143C166.864 206.143 155.734 206.143 155.734 206.069C155.734 205.995 166.852 205.995 180.563 205.995C194.275 205.995 205.38 206.032 205.38 206.069Z" fill="#F9F9FA"/>
<path d="M205.38 200.584C205.38 200.584 194.263 200.658 180.563 200.658C166.864 200.658 155.734 200.658 155.734 200.584C155.734 200.51 166.852 200.522 180.563 200.522C194.275 200.522 205.38 200.547 205.38 200.584Z" fill="#F9F9FA"/>
<path d="M205.38 195.112C205.38 195.112 194.263 195.174 180.563 195.174C166.864 195.174 155.734 195.174 155.734 195.112C155.734 195.05 166.852 195.038 180.563 195.038C194.275 195.038 205.38 195.075 205.38 195.112Z" fill="#F9F9FA"/>
<path d="M205.38 189.627C205.38 189.627 194.263 189.701 180.563 189.701C166.864 189.701 155.734 189.701 155.734 189.627C155.734 189.553 166.852 189.553 180.563 189.553C194.275 189.553 205.38 189.59 205.38 189.627Z" fill="#F9F9FA"/>
<path d="M205.38 184.155C205.38 184.155 194.263 184.217 180.563 184.217C166.864 184.217 155.734 184.217 155.734 184.155C155.734 184.093 166.852 184.081 180.563 184.081C194.275 184.081 205.38 184.106 205.38 184.155Z" fill="#F9F9FA"/>
<path d="M205.38 178.669C205.38 178.669 194.263 178.743 180.563 178.743C166.864 178.743 155.734 178.743 155.734 178.669C155.734 178.595 166.852 178.595 180.563 178.595C194.275 178.595 205.38 178.632 205.38 178.669Z" fill="#F9F9FA"/>
<path d="M205.38 173.173C205.38 173.173 194.263 173.247 180.563 173.247C166.864 173.247 155.734 173.247 155.734 173.173C155.734 173.099 166.852 173.173 180.563 173.173C194.275 173.173 205.38 173.173 205.38 173.173Z" fill="#F9F9FA"/>
<path d="M205.38 167.713C205.38 167.713 194.263 167.713 180.563 167.713C166.864 167.713 155.734 167.713 155.734 167.713C155.734 167.713 166.852 167.639 180.563 167.639C194.275 167.639 205.38 167.676 205.38 167.713Z" fill="#F9F9FA"/>
<path d="M205.38 162.228C205.38 162.228 194.263 162.302 180.563 162.302C166.864 162.302 155.734 162.302 155.734 162.228C155.734 162.154 166.852 162.228 180.563 162.228C194.275 162.228 205.38 162.191 205.38 162.228Z" fill="#F9F9FA"/>
<path d="M205.38 156.756C205.38 156.756 194.263 156.756 180.563 156.756C166.864 156.756 155.734 156.756 155.734 156.756C155.734 156.756 166.852 156.682 180.563 156.682C194.275 156.682 205.38 156.706 205.38 156.756Z" fill="#F9F9FA"/>
<path d="M205.38 151.27C205.38 151.27 194.263 151.345 180.563 151.345C166.864 151.345 155.734 151.345 155.734 151.27C155.734 151.196 166.852 151.196 180.563 151.196C194.275 151.196 205.38 151.233 205.38 151.27Z" fill="#F9F9FA"/>
<path d="M205.381 145.786C205.381 145.786 197.426 145.86 187.617 145.86C177.809 145.86 169.841 145.86 169.841 145.786C169.841 145.712 177.797 145.724 187.617 145.724C197.438 145.724 205.381 145.749 205.381 145.786Z" fill="#F9F9FA"/>
<path d="M166.728 258.816C166.728 258.816 166.728 258.099 166.641 257C166.555 255.901 166.567 254.369 166.567 252.627L166.728 252.8H164.764L164.949 252.627V254.431C164.949 255.011 164.949 255.567 164.949 256.098C164.949 257.111 164.949 258.025 164.949 258.804L164.826 258.692C165.482 258.696 166.137 258.733 166.79 258.804C166.138 258.883 165.482 258.92 164.826 258.915H164.714V258.804C164.714 258.025 164.714 257.111 164.714 256.098C164.714 255.567 164.714 255.011 164.714 254.431C164.714 254.134 164.714 253.838 164.714 253.541V252.627L164.887 252.454H167.024V252.615C167.024 254.431 167.024 256.012 166.95 257.099C166.92 257.676 166.846 258.25 166.728 258.816Z" fill="black"/>
<path d="M184.109 228.021H177.327V234.802H184.109V228.021Z" fill="#EBEEEF"/>
<path d="M184.109 240.447H177.327V247.229H184.109V240.447Z" fill="#EBEEEF"/>
<path d="M184.109 252.875H177.327V259.656H184.109V252.875Z" fill="#EBEEEF"/>
<path d="M184.109 265.302H177.327V272.084H184.109V265.302Z" fill="#EBEEEF"/>
<path d="M183.515 228.366C183.259 228.696 182.983 229.009 182.688 229.305C182.157 229.873 181.453 230.639 180.6 231.479C179.748 232.319 179.019 233.073 178.463 233.616C178.174 233.917 177.864 234.198 177.537 234.456C177.782 234.114 178.059 233.795 178.364 233.505C178.883 232.949 179.6 232.171 180.452 231.331C181.304 230.491 182.033 229.737 182.577 229.206C182.859 228.894 183.174 228.613 183.515 228.366Z" fill="white"/>
<path d="M181.243 229.787C180.97 230.149 180.65 230.473 180.291 230.751C179.979 231.078 179.616 231.353 179.217 231.566C179.479 231.199 179.795 230.874 180.156 230.602C180.468 230.27 180.836 229.994 181.243 229.787Z" fill="white"/>
<path d="M182.923 241.016C182.716 241.315 182.489 241.6 182.243 241.868C181.798 242.387 181.181 243.103 180.489 243.844C179.797 244.586 179.155 245.29 178.685 245.772C178.455 246.051 178.194 246.304 177.907 246.525C178.104 246.218 178.331 245.933 178.587 245.673C179.019 245.154 179.637 244.437 180.328 243.696C181.02 242.955 181.663 242.263 182.132 241.769C182.369 241.491 182.634 241.239 182.923 241.016Z" fill="white"/>
<path d="M182.465 243.486C182.154 243.914 181.793 244.304 181.391 244.647C181.026 245.035 180.611 245.372 180.155 245.648C180.466 245.22 180.827 244.83 181.23 244.486C181.594 244.098 182.01 243.762 182.465 243.486Z" fill="white"/>
<path d="M182.688 253.727C182.489 254.035 182.266 254.329 182.021 254.604C181.589 255.122 180.971 255.839 180.292 256.605C179.612 257.371 179.056 258.075 178.525 258.569C178.29 258.851 178.029 259.111 177.747 259.347C177.94 259.034 178.163 258.74 178.414 258.47C178.846 257.951 179.452 257.235 180.144 256.469C180.835 255.703 181.379 254.999 181.91 254.505C182.146 254.223 182.406 253.962 182.688 253.727Z" fill="white"/>
<path d="M180.514 254.703C180.226 255.353 179.706 255.872 179.056 256.161C179.056 256.161 179.377 255.815 179.773 255.42C180.168 255.024 180.464 254.703 180.514 254.703Z" fill="white"/>
<path d="M183.059 265.512C182.391 266.54 181.665 267.53 180.885 268.476C180.168 269.469 179.393 270.418 178.562 271.318C179.227 270.29 179.949 269.3 180.724 268.353C181.447 267.361 182.226 266.413 183.059 265.512Z" fill="white"/>
<path d="M180.65 266.845C180.411 267.251 180.111 267.618 179.76 267.932C179.462 268.297 179.112 268.618 178.723 268.883C178.966 268.481 179.265 268.115 179.612 267.796C179.911 267.431 180.26 267.111 180.65 266.845Z" fill="white"/>
<path d="M155.203 160.536L153.239 149.653L236.004 121.871V133.742L155.203 160.536Z" fill="black"/>
<path d="M133.622 240.038C133.622 240.211 126.395 240.36 117.489 240.36C108.582 240.36 101.356 240.211 101.356 240.038C101.356 239.866 108.582 239.717 117.489 239.717C126.395 239.717 133.622 239.878 133.622 240.038Z" fill="black"/>
<path d="M117.254 256.432C117.069 256.432 116.933 249.242 116.933 240.373C116.933 231.503 117.069 224.314 117.254 224.314C117.44 224.314 117.575 231.516 117.575 240.373C117.575 249.23 117.427 256.432 117.254 256.432Z" fill="black"/>
<path d="M73.8089 240.038C73.8089 240.211 66.5948 240.36 57.6759 240.36C48.7571 240.36 41.543 240.211 41.543 240.038C41.543 239.866 48.7695 239.717 57.6759 239.717C66.5824 239.717 73.8089 239.878 73.8089 240.038Z" fill="black"/>
<path d="M57.4413 256.432C57.2684 256.432 57.1201 249.242 57.1201 240.373C57.1201 231.503 57.2684 224.314 57.4413 224.314C57.6142 224.314 57.7625 231.516 57.7625 240.373C57.7625 249.23 57.6142 256.432 57.4413 256.432Z" fill="black"/>
<path d="M218.981 216.408C218.981 216.408 218.981 216.309 218.981 216.124C218.981 215.938 218.981 215.642 218.981 215.333C218.981 214.592 218.981 213.616 218.981 212.418H208.098L208.172 212.344V216.408L208.098 216.346H215.881H218.153H215.905H208.073H208.012V212.294C208.012 212.294 208.135 212.158 208.073 212.22H218.956C218.956 213.455 218.956 214.419 218.956 215.16C218.956 215.469 218.956 215.728 218.956 215.951C218.982 216.102 218.99 216.255 218.981 216.408Z" fill="black"/>
<g opacity="0.3">
<path d="M216.411 208.416H205.528V212.406H216.411V208.416Z" fill="black"/>
</g>
<path d="M317.063 257.84V256.766C317.063 256.025 317.063 255.036 317.063 253.85H306.193C306.131 253.85 306.267 253.764 306.255 253.789V257.754L306.193 257.68H313.963H316.273H314.012H306.193H306.119V253.653L306.193 253.579H317.063C317.063 254.814 317.063 255.765 317.063 256.519C317.063 256.827 317.063 257.087 317.063 257.297C317.086 257.477 317.086 257.66 317.063 257.84Z" fill="black"/>
<g opacity="0.3">
<path d="M314.494 249.86H303.611V253.85H314.494V249.86Z" fill="black"/>
</g>
<g opacity="0.3">
<path d="M328.194 231.232H317.311V235.222H328.194V231.232Z" fill="white"/>
</g>
<g opacity="0.3">
<path d="M230.716 278.938H219.833V282.928H230.716V278.938Z" fill="white"/>
</g>
<path d="M260.104 226.291V226.007C260.104 225.797 260.104 225.525 260.104 225.216C260.104 224.475 260.104 223.499 260.104 222.301H249.221L249.296 222.227V226.291H249.221H257.004H259.277H257.053H249.221H249.16V222.264C249.16 222.264 249.296 222.14 249.221 222.202H260.154C260.154 223.437 260.154 224.401 260.154 225.142V225.932C260.148 226.053 260.131 226.173 260.104 226.291Z" fill="black"/>
<g opacity="0.3">
<path d="M212.743 167.812H205.924V171.802H212.743V167.812Z" fill="white"/>
</g>
<path d="M271.223 203.722V203.438C271.223 203.228 271.223 202.956 271.223 202.647C271.223 201.906 271.223 200.93 271.223 199.732H260.352L260.414 199.658V203.611H260.352H268.122H270.395H268.171H260.352H260.278V199.583C260.278 199.583 260.414 199.46 260.352 199.522H271.272C271.272 200.757 271.272 201.721 271.272 202.474C271.272 202.771 271.272 203.03 271.272 203.252C271.274 203.41 271.257 203.568 271.223 203.722Z" fill="black"/>
<path d="M299.078 220.324V219.249C299.078 218.508 299.078 217.532 299.078 216.334H288.207L288.269 216.272V220.237L288.207 220.163H295.977H298.287H296.027H288.207H288.133V216.408L288.207 216.334H299.078C299.078 217.569 299.078 218.533 299.078 219.274C299.078 219.583 299.078 219.842 299.078 220.052C299.084 220.142 299.084 220.233 299.078 220.324Z" fill="black"/>
<path d="M223.638 249.897C223.638 249.897 223.638 249.798 223.638 249.613C223.638 249.428 223.638 249.131 223.638 248.822C223.638 248.081 223.638 247.105 223.638 245.907H212.755L212.829 245.833V249.811L212.755 249.749H220.538H222.81H220.562H212.73V245.709C212.73 245.709 212.854 245.573 212.73 245.635H223.613C223.613 246.871 223.613 247.834 223.613 248.575C223.613 248.884 223.613 249.143 223.613 249.366C223.645 249.541 223.653 249.72 223.638 249.897Z" fill="black"/>
<path d="M398.457 125.354L417.444 121.846H440.556L459.506 128.789L452.23 145.996C452.23 145.996 434.343 148.257 434.12 148.936C433.898 149.616 420.359 160.82 420.359 160.82L404.152 148.467L393.417 136.682L398.457 125.354Z" fill="#38B6FF"/>
<path d="M404.053 487.272L406.141 514.338C406.141 514.338 379.285 523.578 379.174 528.618L431.847 528.432L430.328 486.136L404.053 487.272Z" fill="#AC71C7"/>
<g opacity="0.3">
<path d="M404.054 487.272L406.141 514.338C406.141 514.338 379.286 523.578 379.175 528.618L431.848 528.432L430.328 486.136L404.054 487.272Z" fill="black"/>
</g>
<path d="M422.311 511.397C422.825 511.526 423.272 511.842 423.567 512.282C423.861 512.723 423.982 513.257 423.904 513.781C423.791 514.299 423.483 514.753 423.044 515.05C422.604 515.347 422.068 515.463 421.545 515.375C421.015 515.235 420.553 514.908 420.246 514.453C419.939 513.999 419.808 513.448 419.877 512.904C420.051 512.377 420.421 511.937 420.912 511.676C421.402 511.416 421.975 511.356 422.509 511.508" fill="black"/>
<path d="M431.811 528.432L431.663 524.17L380.805 526.109C380.273 526.397 379.818 526.811 379.482 527.315C379.146 527.819 378.939 528.397 378.878 529L431.811 528.432Z" fill="black"/>
<path d="M405.276 514.115C405.276 514.374 406.586 514.436 407.883 515.214C409.18 515.992 409.896 517.042 410.131 516.931C410.366 516.82 409.921 515.35 408.327 514.461C406.734 513.571 405.214 513.868 405.276 514.115Z" fill="black"/>
<path d="M399.854 516.586C399.854 516.845 400.928 517.228 401.855 518.29C402.781 519.353 403.09 520.477 403.325 520.452C403.559 520.427 403.683 518.97 402.509 517.685C401.336 516.4 399.841 516.376 399.854 516.586Z" fill="black"/>
<path d="M396.987 523.355C397.222 523.355 397.531 522.12 396.814 520.712C396.098 519.303 394.862 518.822 394.763 519.044C394.665 519.266 395.443 519.983 395.999 521.132C396.555 522.28 396.728 523.331 396.987 523.355Z" fill="black"/>
<path d="M405.486 507.939C405.597 508.161 406.722 507.766 408.229 507.803C409.736 507.84 410.835 508.247 410.959 508.025C411.082 507.803 409.958 506.926 408.241 506.913C406.524 506.901 405.35 507.691 405.486 507.939Z" fill="black"/>
<path d="M405.165 502.416C406.037 502.614 406.947 502.571 407.796 502.293C408.741 502.086 409.658 501.767 410.526 501.342C411.05 501.104 411.558 500.831 412.046 500.526C412.338 500.35 412.6 500.129 412.824 499.872C412.984 499.682 413.077 499.445 413.088 499.197C413.1 498.948 413.028 498.704 412.886 498.5C412.752 498.325 412.577 498.184 412.377 498.089C412.177 497.994 411.958 497.949 411.737 497.957C411.401 497.97 411.069 498.028 410.749 498.13C410.192 498.293 409.651 498.503 409.13 498.76C408.263 499.202 407.468 499.773 406.771 500.452C405.597 501.688 405.214 502.614 405.313 502.663C405.412 502.713 405.993 501.91 407.191 500.922C407.893 500.355 408.665 499.882 409.489 499.513C409.971 499.294 410.471 499.116 410.983 498.982C411.539 498.809 412.009 498.785 412.219 498.982C412.429 499.18 412.28 499.106 412.219 499.279C412.052 499.461 411.861 499.619 411.65 499.748C411.216 500.06 410.762 500.345 410.292 500.6C409.502 501.035 408.675 501.399 407.821 501.688C406.919 501.865 406.031 502.108 405.165 502.416Z" fill="black"/>
<path d="M405.511 502.775C405.986 502.007 406.195 501.104 406.104 500.206C406.114 499.226 405.951 498.251 405.622 497.328C405.436 496.78 405.192 496.254 404.893 495.759C404.732 495.422 404.487 495.132 404.183 494.915C403.878 494.699 403.523 494.564 403.152 494.523C402.919 494.54 402.696 494.621 402.508 494.759C402.32 494.897 402.175 495.085 402.089 495.302C401.964 495.614 401.885 495.943 401.855 496.278C401.785 496.871 401.81 497.471 401.929 498.056C402.111 499.035 402.536 499.952 403.164 500.725C404.251 502.046 405.326 502.318 405.351 502.219C405.375 502.12 404.511 501.639 403.671 500.354C403.185 499.608 402.869 498.765 402.744 497.883C402.676 497.379 402.676 496.868 402.744 496.364C402.806 495.796 403.003 495.339 403.213 495.388C403.423 495.438 403.93 495.783 404.165 496.216C404.447 496.657 404.687 497.125 404.881 497.612C405.208 498.452 405.416 499.333 405.499 500.231C405.61 501.762 405.375 502.738 405.511 502.775Z" fill="black"/>
<path d="M421.138 487.222L423.164 514.287C423.164 514.287 396.308 523.527 396.209 528.567L448.87 528.382L447.363 486.085L421.138 487.222Z" fill="#AC71C7"/>
<path d="M439.395 511.348C439.907 511.48 440.352 511.796 440.644 512.236C440.936 512.677 441.054 513.209 440.977 513.732C440.866 514.249 440.56 514.703 440.123 515C439.686 515.297 439.151 515.414 438.629 515.326C438.087 515.185 437.616 514.848 437.308 514.38C437 513.913 436.877 513.347 436.962 512.793C437.135 512.266 437.506 511.826 437.996 511.566C438.487 511.305 439.059 511.245 439.593 511.397" fill="black"/>
<path d="M448.92 528.383L448.772 524.121L397.927 526.061C397.393 526.346 396.937 526.757 396.599 527.259C396.261 527.76 396.051 528.337 395.987 528.939L448.92 528.383Z" fill="black"/>
<path d="M422.348 514.115C422.348 514.374 423.658 514.436 424.955 515.214C426.252 515.993 426.981 517.043 427.203 516.931C427.426 516.82 426.993 515.35 425.412 514.461C423.831 513.571 422.287 513.831 422.348 514.115Z" fill="black"/>
<path d="M416.987 516.586C416.987 516.845 418.074 517.24 418.988 518.29C419.903 519.34 420.224 520.477 420.458 520.452C420.693 520.427 420.817 518.97 419.656 517.685C418.494 516.4 416.987 516.326 416.987 516.586Z" fill="black"/>
<path d="M414.059 523.305C414.294 523.305 414.603 522.07 413.886 520.662C413.17 519.254 411.947 518.772 411.848 518.994C411.749 519.217 412.515 519.933 413.083 521.082C413.652 522.231 413.812 523.281 414.059 523.305Z" fill="black"/>
<path d="M422.559 507.84C422.682 508.062 423.794 507.667 425.301 507.704C426.808 507.741 427.907 508.161 428.031 507.926C428.154 507.692 427.03 506.827 425.313 506.815C423.596 506.802 422.423 507.642 422.559 507.84Z" fill="black"/>
<path d="M422.237 502.367C423.113 502.567 424.027 502.524 424.881 502.243C425.822 502.038 426.735 501.719 427.598 501.292C428.111 501.036 428.606 500.747 429.081 500.427C429.369 500.25 429.627 500.029 429.847 499.773C430 499.577 430.083 499.335 430.083 499.087C430.083 498.838 430 498.597 429.847 498.401C429.713 498.226 429.538 498.084 429.338 497.99C429.139 497.895 428.919 497.85 428.698 497.858C428.366 497.871 428.038 497.929 427.722 498.031C427.165 498.194 426.624 498.404 426.104 498.661C425.235 499.1 424.439 499.671 423.744 500.353C422.509 501.588 422.188 502.515 422.274 502.564C422.361 502.614 422.954 501.811 424.164 500.835C424.861 500.257 425.634 499.779 426.462 499.414C426.943 499.193 427.444 499.015 427.957 498.883C428.5 498.71 428.982 498.685 429.13 498.883C429.278 499.081 429.192 499.007 429.13 499.18C428.964 499.362 428.773 499.52 428.562 499.649C428.131 499.967 427.677 500.251 427.203 500.501C426.415 500.94 425.588 501.304 424.733 501.588C423.885 501.794 423.051 502.054 422.237 502.367Z" fill="black"/>
<path d="M422.596 502.725C423.063 501.954 423.271 501.054 423.189 500.156C423.196 498.588 422.769 497.048 421.953 495.709C421.796 495.372 421.554 495.08 421.251 494.864C420.948 494.648 420.594 494.513 420.224 494.474C419.989 494.488 419.764 494.568 419.573 494.706C419.383 494.844 419.236 495.033 419.149 495.252C419.024 495.564 418.945 495.893 418.914 496.228C418.858 496.821 418.883 497.42 418.989 498.007C419.176 498.984 419.6 499.9 420.224 500.675C421.311 501.997 422.398 502.268 422.41 502.182C422.423 502.095 421.583 501.589 420.743 500.304C420.248 499.562 419.927 498.717 419.804 497.834C419.73 497.33 419.73 496.818 419.804 496.314C419.866 495.758 420.051 495.289 420.261 495.338C420.471 495.388 420.99 495.734 421.224 496.166C421.501 496.613 421.736 497.085 421.929 497.574C422.262 498.408 422.47 499.286 422.546 500.181C422.682 501.762 422.447 502.688 422.596 502.725Z" fill="black"/>
<path d="M386.105 225.673C386.105 225.673 370.454 261.2 370.454 286.202C370.454 311.205 376.766 376.849 376.766 376.849C376.766 376.849 381.708 413.29 384.079 443.468C386.451 473.646 389.688 501.848 389.688 501.848H420.101L453.454 502.762C453.454 502.762 463.027 454.586 464.67 435.624C466.227 417.576 467.796 388.979 467.796 388.979C467.796 388.979 473.046 329.277 474.936 317.579C480.111 285.461 478.641 260.409 473.391 250.589L462.471 229.082L386.105 225.673Z" fill="black"/>
<path d="M419.692 305.004C419.89 305.004 420.05 348.968 420.05 403.173C420.05 457.378 419.89 501.354 419.692 501.354C419.494 501.354 419.346 457.403 419.346 403.173C419.346 348.943 419.457 305.004 419.692 305.004Z" fill="#D6A273"/>
<path d="M450.81 136.83C452.644 133.926 454.294 130.91 455.751 127.8L470.574 132.482C470.574 132.482 465.065 224.116 462.125 228.18C459.185 232.244 436.826 231.157 436.826 231.157L384.647 229.255L384.536 172.37L380.966 131.284L398.458 125.552C398.458 125.552 395.098 149.022 423.571 150.258C423.571 150.233 439.124 151.999 450.81 136.83Z" fill="#AC71C7"/>
<g opacity="0.3">
<path d="M461.186 226.735C460.519 222.622 459.852 218.52 459.198 214.382C457.962 206.822 456.727 199.052 452.737 192.493C448.747 185.933 441.496 180.794 433.899 181.696C430.526 182.104 426.858 184.352 426.808 187.749C426.314 189.565 427.969 197.187 428.809 198.867C429.649 200.547 432.515 201.177 433.368 199.497C433.936 198.385 433.368 196.792 434.319 195.927C434.539 195.772 434.787 195.663 435.05 195.605C435.312 195.548 435.584 195.543 435.848 195.591C436.112 195.639 436.365 195.74 436.59 195.887C436.815 196.033 437.009 196.223 437.16 196.446C437.728 197.386 438.035 198.46 438.049 199.559C438.551 205.732 440.228 211.753 442.99 217.298C445.8 222.861 450.442 227.285 456.134 229.823C457.826 230.528 460.235 230.762 461.075 229.119C461.346 228.353 461.385 227.523 461.186 226.735Z" fill="black"/>
</g>
<path d="M470.562 132.272C470.562 132.272 483.903 141.314 482.766 162.944C481.827 180.807 477.998 212.356 475.355 220.114C472.711 227.872 466.423 231.726 461.667 230.824C456.912 229.922 453.02 225.772 449.45 214.456C445.88 203.141 441.421 188.256 441.421 188.256L453.033 175.446L462.137 193.012L470.562 132.272Z" fill="#38B6FF"/>
<path d="M470.562 132.272C470.562 132.272 484.373 137.67 487.14 155.236C489.907 172.802 491.97 186.205 491.303 186.217C491.303 186.217 462.31 188.33 462.113 187.626C461.915 186.922 470.562 132.272 470.562 132.272Z" fill="#AC71C7"/>
<path d="M467.054 151.852C467.227 151.852 466.264 161.104 464.892 172.469C463.521 183.833 462.274 193.036 462.101 193.012C461.928 192.987 462.891 183.759 464.262 172.395C465.634 161.03 466.881 151.827 467.054 151.852Z" fill="black"/>
<path d="M394.06 131.679H393.912C393.558 131.698 393.226 131.854 392.986 132.115C392.747 132.375 392.618 132.719 392.627 133.073C392.637 133.426 392.784 133.763 393.038 134.009C393.292 134.256 393.632 134.394 393.986 134.394C394.34 134.394 394.68 134.256 394.933 134.009C395.187 133.763 395.334 133.426 395.344 133.073C395.354 132.719 395.225 132.375 394.985 132.115C394.745 131.854 394.413 131.698 394.06 131.679Z" fill="#DDC6E8"/>
<path d="M396.716 139.82H396.555C396.189 139.841 395.846 140.004 395.598 140.274C395.35 140.544 395.217 140.9 395.228 141.266C395.238 141.633 395.391 141.981 395.654 142.236C395.917 142.492 396.269 142.635 396.635 142.635C397.002 142.635 397.354 142.492 397.617 142.236C397.88 141.981 398.033 141.633 398.043 141.266C398.053 140.9 397.921 140.544 397.673 140.274C397.425 140.004 397.082 139.841 396.716 139.82Z" fill="#DDC6E8"/>
<path d="M403.609 146.552H403.461C403.111 146.571 402.782 146.726 402.544 146.984C402.307 147.242 402.179 147.583 402.189 147.933C402.199 148.284 402.345 148.617 402.596 148.861C402.847 149.106 403.184 149.243 403.535 149.243C403.886 149.243 404.222 149.106 404.474 148.861C404.725 148.617 404.871 148.284 404.881 147.933C404.891 147.583 404.763 147.242 404.526 146.984C404.288 146.726 403.959 146.571 403.609 146.552Z" fill="#DDC6E8"/>
<path d="M415.122 151.246H414.974C414.621 151.265 414.289 151.422 414.049 151.682C413.809 151.943 413.68 152.286 413.69 152.64C413.7 152.994 413.847 153.33 414.101 153.577C414.354 153.824 414.694 153.962 415.048 153.962C415.402 153.962 415.742 153.824 415.996 153.577C416.25 153.33 416.397 152.994 416.407 152.64C416.416 152.286 416.287 151.943 416.048 151.682C415.808 151.422 415.476 151.265 415.122 151.246Z" fill="#DDC6E8"/>
<path d="M437.481 150.629H437.332C436.982 150.648 436.653 150.803 436.416 151.061C436.178 151.319 436.051 151.66 436.061 152.01C436.07 152.361 436.216 152.694 436.468 152.938C436.719 153.183 437.056 153.32 437.407 153.32C437.757 153.32 438.094 153.183 438.345 152.938C438.597 152.694 438.743 152.361 438.753 152.01C438.762 151.66 438.635 151.319 438.397 151.061C438.16 150.803 437.831 150.648 437.481 150.629Z" fill="#DDC6E8"/>
<path d="M445.671 145.552H445.511C445.145 145.573 444.801 145.735 444.553 146.005C444.306 146.275 444.173 146.631 444.183 146.998C444.194 147.364 444.347 147.712 444.609 147.968C444.872 148.223 445.224 148.366 445.591 148.366C445.957 148.366 446.309 148.223 446.572 147.968C446.835 147.712 446.988 147.364 446.998 146.998C447.009 146.631 446.876 146.275 446.628 146.005C446.38 145.735 446.037 145.573 445.671 145.552Z" fill="#DDC6E8"/>
<path d="M452.638 138.807H452.49C452.139 138.826 451.811 138.981 451.573 139.239C451.336 139.497 451.208 139.838 451.218 140.188C451.227 140.539 451.373 140.872 451.625 141.116C451.876 141.361 452.213 141.498 452.564 141.498C452.914 141.498 453.251 141.361 453.503 141.116C453.754 140.872 453.9 140.539 453.91 140.188C453.919 139.838 453.792 139.497 453.554 139.239C453.317 138.981 452.988 138.826 452.638 138.807Z" fill="#DDC6E8"/>
<path d="M457.493 130.197H457.332C456.983 130.218 456.655 130.374 456.419 130.632C456.182 130.891 456.056 131.231 456.067 131.581C456.077 131.931 456.223 132.263 456.475 132.507C456.726 132.751 457.062 132.887 457.412 132.887C457.763 132.887 458.099 132.751 458.35 132.507C458.601 132.263 458.748 131.931 458.758 131.581C458.769 131.231 458.642 130.891 458.406 130.632C458.17 130.374 457.842 130.218 457.493 130.197Z" fill="#DDC6E8"/>
<path d="M426.301 152.457H426.153C425.799 152.476 425.468 152.633 425.228 152.893C424.988 153.153 424.859 153.497 424.869 153.851C424.878 154.205 425.026 154.541 425.279 154.788C425.533 155.035 425.873 155.173 426.227 155.173C426.581 155.173 426.921 155.035 427.175 154.788C427.428 154.541 427.576 154.205 427.585 153.851C427.595 153.497 427.466 153.153 427.226 152.893C426.987 152.633 426.655 152.476 426.301 152.457Z" fill="#DDC6E8"/>
<path d="M472.267 218.508C472.267 218.508 472.514 218.174 472.835 217.532C473.28 216.626 473.496 215.625 473.465 214.617C473.4 213.11 473.035 211.632 472.39 210.269C471.674 208.749 470.636 207.119 469.623 205.401L464.163 196.754C463.484 195.643 462.928 194.716 462.582 194.074C462.236 193.431 462.051 193.061 462.1 193.036C462.996 194.14 463.821 195.3 464.571 196.507C466.028 198.694 468.091 201.671 470.191 205.093C471.202 206.689 472.126 208.338 472.958 210.034C473.606 211.475 473.943 213.037 473.947 214.617C473.936 215.689 473.637 216.739 473.082 217.656C472.637 218.298 472.291 218.533 472.267 218.508Z" fill="#0087D5"/>
<path d="M395.888 176.57C396.604 177.003 430.476 210.652 430.476 210.652L393.8 252.467L361.683 221.424L395.888 176.57Z" fill="#EBEEEF"/>
<path d="M393.257 175.644C393.986 176.088 428.389 210.467 428.389 210.467L391.157 253.196L358.57 221.473L393.257 175.644Z" fill="#D6A273"/>
<path d="M383.486 205.241L402.571 204.315L404.004 223.684L383.486 205.241Z" fill="#482E15"/>
<path d="M403.398 217.239L390.05 205.128L378.869 217.451L392.216 229.562L403.398 217.239Z" fill="#482E15"/>
<path d="M407.133 210.223L405.056 208.339L400.374 213.498L402.451 215.383L407.133 210.223Z" fill="#482E15"/>
<path d="M380.756 131.234C375.027 134.708 370.702 140.087 368.539 146.429C365.982 154.433 348.292 212.22 350.676 218.78C353.061 225.339 355.741 226.809 359.015 228.304C362.288 229.799 378.965 233.06 390.28 233.369L393.257 218.175L370.911 208.07L382.881 179.102L380.756 131.234Z" fill="#38B6FF"/>
<path d="M370.985 208.193C370.304 208.085 369.632 207.933 368.971 207.736C367.365 207.43 365.714 207.451 364.116 207.798C360.324 208.626 357.94 210.923 357.816 210.738C358.214 210.15 358.732 209.653 359.336 209.28C360.721 208.265 362.303 207.55 363.981 207.18C365.665 206.803 367.416 206.842 369.082 207.292C369.78 207.435 370.432 207.744 370.985 208.193Z" fill="#0087D5"/>
<path d="M381.621 130.951C381.621 130.951 375.382 132.878 370.503 141.475C365.623 150.073 353.604 182.24 353.604 182.24L382.399 189.986L386.426 184.711L381.621 130.951Z" fill="#AC71C7"/>
<path d="M381.843 158.473C381.979 159.782 382.016 161.099 381.954 162.413C381.946 165.562 382.231 168.705 382.807 171.802C383.496 174.881 384.341 177.924 385.339 180.918C385.794 182.152 386.149 183.42 386.401 184.71C385.799 183.521 385.303 182.281 384.919 181.004C383.785 178.032 382.868 174.981 382.177 171.876C381.586 168.737 381.358 165.542 381.497 162.351C381.497 161.116 381.608 160.153 381.683 159.473C381.69 159.134 381.744 158.797 381.843 158.473Z" fill="black"/>
<path d="M393.257 218.286C393.257 218.286 405.796 212.11 406.846 212.27C407.896 212.431 423.868 214.197 423.868 214.197C423.868 214.197 424.992 216.668 421.546 218.051C419.335 218.891 414.134 218.484 410.7 218.632C409.523 218.688 408.371 218.987 407.315 219.509L414.974 222.857L423.386 222.536L426.808 217.137C426.808 217.137 428.426 217.038 428.426 219.064C428.163 221.68 427.725 224.276 427.117 226.834L422.979 229.206L420.632 232.64L420.125 234.765C420.125 234.765 412.528 239.632 409.786 239.027C407.043 238.421 390.317 233.468 390.317 233.468L393.257 218.286Z" fill="#38B6FF"/>
<path d="M427.079 227.032C425.564 228.141 423.966 229.132 422.299 229.997C421.141 230.649 419.945 231.231 418.716 231.738C418.222 232.003 417.671 232.147 417.11 232.158C417.11 232.06 417.642 231.8 418.531 231.331L421.99 229.428C424.67 227.847 427.005 226.834 427.079 227.032Z" fill="#0087D5"/>
<path d="M411.503 218.681C410.634 218.892 409.75 219.036 408.859 219.113C407.439 219.434 406.228 219.694 406.179 219.508C406.927 218.949 407.808 218.595 408.736 218.483C409.649 218.188 410.641 218.259 411.503 218.681Z" fill="#0087D5"/>
<path d="M420.767 232.306C420.891 232.43 420.088 233.393 418.778 234.184C418.032 234.75 417.121 235.054 416.184 235.048C416.122 234.875 417.209 234.381 418.445 233.628C419.68 232.874 420.693 232.17 420.767 232.306Z" fill="#0087D5"/>
<path d="M419.285 83.2674L405.203 49.6426C401.658 51.4974 398.533 54.0626 396.023 57.1783C393.513 60.294 391.671 63.8934 390.614 67.752C389.082 73.5209 389.379 79.5862 389.663 85.5403C390.437 100.957 391.211 116.377 391.985 131.802C391.961 132.794 392.151 133.78 392.541 134.693C393.579 136.731 396.247 137.262 398.483 137.41C402.669 137.695 406.873 137.521 411.021 136.892C413.492 136.521 416.147 135.866 417.729 133.927C418.864 132.203 419.497 130.197 419.557 128.133C421.232 113.219 421.141 98.1599 419.285 83.2674Z" fill="black"/>
<path d="M415.344 44.6035C406.265 46.0735 396.444 52.7812 392.899 61.2677C389.354 69.7542 389.724 80.6865 389.872 89.8772C392.677 89.3089 394.455 90.643 397.284 90.4454C398.201 90.2817 399.076 89.9375 399.858 89.4328C400.641 88.9281 401.315 88.2729 401.842 87.5054C404.465 83.9979 406.589 80.1443 408.155 76.0542C412.272 66.5177 416.345 56.9524 420.372 47.3582L415.344 44.6035Z" fill="black"/>
<path d="M419.692 49.2227C413.758 49.3595 408.096 51.7396 403.847 55.8837C399.597 60.0278 397.076 65.6281 396.79 71.5568C396.271 82.1927 395.987 92.9151 396.432 96.7445C397.791 108.295 404.597 111.877 407.549 112.939C408.765 113.256 410.004 113.471 411.255 113.582C411.255 113.582 411.329 113.582 411.329 113.668L410.094 127.256C409.81 136.089 415.567 143.315 424.547 143.686C433.528 144.056 439.803 136.62 440.26 127.775L442.928 72.3227C442.974 69.2651 442.403 66.2297 441.249 63.3976C440.096 60.5655 438.384 57.9947 436.215 55.8388C434.047 53.6828 431.466 51.9859 428.627 50.8492C425.788 49.7124 422.75 49.1593 419.692 49.2227Z" fill="#38B6FF"/>
<path d="M411.354 113.582C411.354 113.582 418.852 113.644 423.868 110.976C423.868 110.976 421.656 117.251 411.021 117.239L411.354 113.582Z" fill="#0087D5"/>
<path d="M427.685 225.056C427.771 225.056 427.685 225.884 426.561 226.366C425.964 226.593 425.334 226.722 424.695 226.749L422.472 226.934C420.563 227.179 418.632 227.212 416.715 227.033C418.585 226.579 420.499 226.33 422.422 226.291C423.751 226.268 425.075 226.152 426.388 225.946C427.327 225.649 427.598 225.056 427.685 225.056Z" fill="#AC71C7"/>
<path d="M430.682 67.7845C435.034 69.1951 436.022 109.035 433.364 129.585C433.027 131.192 433.027 132.857 433.364 134.465C433.555 135.26 433.986 135.97 434.594 136.49C435.203 137.009 435.955 137.311 436.741 137.349C438.484 137.248 439.643 135.456 440.301 133.766C440.959 132.075 441.52 130.182 442.971 129.191C445.056 127.767 447.933 128.886 450.286 127.92C452.053 127.208 455.662 129.521 456.138 127.615C456.526 125.672 456.616 123.678 456.406 121.705C455.784 110.675 456.686 100.572 456.064 89.5409C455.884 83.5171 455.223 77.5193 454.089 71.6096C452.785 65.7384 446.531 54.9237 442.666 50.4504C435.875 42.584 422.977 36.9416 414.516 44.7063C414.504 44.7572 417.247 63.4255 430.682 67.7845Z" fill="black"/>
<path d="M439.815 189.615C439.815 189.615 432.329 186.23 431.699 185.131C431.069 184.032 429.896 181.82 429.896 181.82C429.896 181.82 428.006 182.29 427.611 180.795C427.383 179.787 427.383 178.74 427.611 177.732C427.611 177.732 424.609 173.63 424.695 172.136C424.782 170.641 424.843 168.664 427.611 169.381L432.255 164.724C432.725 164.254 436.431 160.796 438.629 162.834C440.202 164.226 441.921 165.443 443.756 166.466C443.756 166.466 446.226 165.354 447.462 167.17C448.697 168.986 448.635 169.776 448.635 169.776C448.635 169.776 450.365 170.715 450.686 171.901C450.991 172.813 451.406 173.684 451.921 174.495C451.921 174.495 453.885 175.125 453.576 177.966C453.123 180.515 452.436 183.017 451.526 185.44C451.526 185.44 449.945 191.616 446.399 191.431C444.103 191.286 441.861 190.668 439.815 189.615Z" fill="#38B6FF"/>
<path d="M427.623 169.665C427.623 169.665 427.463 169.936 427.24 170.43C426.917 171.089 426.868 171.848 427.104 172.543C427.275 172.991 427.605 173.36 428.031 173.58C428.552 173.78 429.128 173.78 429.649 173.58C430.957 173.203 432.104 172.404 432.91 171.307C433.775 170.072 434.689 168.96 435.504 167.947C435.87 167.432 436.284 166.952 436.74 166.515C437.203 166.149 437.769 165.937 438.358 165.909C439.146 165.893 439.935 165.934 440.717 166.033C441.001 166.008 441.286 166.008 441.57 166.033C441.57 166.033 441.286 166.193 440.717 166.23C440.149 166.267 439.346 166.23 438.407 166.292C437.92 166.346 437.46 166.544 437.086 166.86C436.664 167.288 436.28 167.751 435.937 168.244C435.146 169.282 434.294 170.393 433.392 171.641C432.508 172.853 431.235 173.725 429.785 174.112C429.123 174.324 428.406 174.285 427.772 174C427.239 173.708 426.841 173.221 426.66 172.642C426.534 172.242 426.5 171.819 426.559 171.404C426.619 170.989 426.772 170.593 427.006 170.245C427.339 169.825 427.599 169.64 427.623 169.665Z" fill="#0087D5"/>
<path d="M429.34 181.437C430.35 181.295 431.304 180.89 432.107 180.263C433.978 178.617 435.702 176.811 437.259 174.865L440.001 171.74C440.74 170.815 441.725 170.118 442.842 169.726C443.612 169.494 444.432 169.494 445.202 169.726C445.733 169.899 445.967 170.109 445.955 170.134C445.943 170.158 445.659 170.06 445.14 169.973C444.419 169.834 443.673 169.885 442.978 170.121C441.199 170.677 439.729 173.086 437.74 175.236C436.145 177.226 434.321 179.021 432.305 180.584C431.663 181.05 430.917 181.352 430.131 181.461C429.87 181.527 429.596 181.518 429.34 181.437Z" fill="#0087D5"/>
<path d="M433.046 179.745C432.963 180.049 432.847 180.343 432.7 180.622C432.349 181.356 432.249 182.185 432.416 182.981C432.56 183.491 432.885 183.93 433.33 184.217C433.581 184.364 433.867 184.442 434.158 184.442C434.449 184.442 434.735 184.364 434.985 184.217C435.597 183.837 436.154 183.376 436.641 182.845C437.184 182.302 437.74 181.721 438.296 181.128C440.126 178.956 442.241 177.041 444.584 175.434C445.317 174.973 446.101 174.596 446.918 174.309C447.215 174.183 447.534 174.116 447.857 174.112C447.857 174.223 446.622 174.594 444.831 175.817C442.603 177.506 440.569 179.437 438.765 181.573C438.209 182.166 437.641 182.808 437.073 183.302C436.542 183.871 435.93 184.358 435.257 184.748C434.921 184.942 434.54 185.044 434.151 185.044C433.763 185.044 433.382 184.942 433.046 184.748C432.501 184.377 432.121 183.811 431.984 183.167C431.824 182.271 432 181.347 432.478 180.572C432.749 179.979 432.972 179.732 433.046 179.745Z" fill="#0087D5"/>
<path d="M447.771 180.745C447.919 180.646 448.463 181.264 449.364 181.61C450.266 181.956 451.069 181.894 451.119 182.067C451.168 182.24 450.241 182.647 449.13 182.203C448.018 181.758 447.598 180.819 447.771 180.745Z" fill="#0087D5"/>
<path d="M451.872 175.286C451.537 175.116 451.215 174.922 450.908 174.705C450.501 174.439 450.022 174.305 449.536 174.32C449.05 174.336 448.58 174.5 448.191 174.792C447.178 175.533 445.967 176.57 444.608 177.62C443.08 178.606 441.887 180.031 441.187 181.709C440.993 182.193 440.993 182.733 441.187 183.216C441.313 183.406 441.489 183.558 441.697 183.654C441.904 183.75 442.133 183.787 442.36 183.76C443.342 183.505 444.254 183.032 445.028 182.376L449.216 179.585H449.302H449.389C449.981 179.794 450.624 179.816 451.23 179.646C451.662 179.523 451.872 179.399 451.897 179.436C451.921 179.473 451.724 179.646 451.291 179.832C450.648 180.095 449.934 180.134 449.265 179.943H449.438L445.399 182.833L444.164 183.735C443.673 184.093 443.099 184.318 442.496 184.39C442.148 184.428 441.796 184.368 441.482 184.215C441.167 184.062 440.902 183.823 440.717 183.525C440.435 182.893 440.408 182.176 440.643 181.524C441.384 179.71 442.681 178.179 444.349 177.151C445.745 176.113 446.931 175.162 448.055 174.409C448.581 174.045 449.223 173.887 449.858 173.964C450.304 174.048 450.726 174.23 451.094 174.495C451.65 174.94 451.897 175.261 451.872 175.286Z" fill="#0087D5"/>
<path d="M423.237 181.202C423.176 181.202 417.728 186.057 417.728 186.057V186.835H418.617V191.43H428.759V186.489H429.995V185.612L423.237 181.202Z" fill="#A5E093"/>
<path d="M431.502 183.289C431.519 182.445 431.298 181.612 430.864 180.887C430.43 180.163 429.8 179.575 429.048 179.191C428.295 178.808 427.449 178.644 426.608 178.719C425.766 178.794 424.963 179.104 424.29 179.615C423.616 180.125 423.1 180.815 422.801 181.605C422.502 182.395 422.431 183.253 422.598 184.082C422.764 184.91 423.16 185.675 423.741 186.289C424.321 186.902 425.063 187.34 425.881 187.551V188.786L427.116 189.688L425.881 190.429V191.998L427.116 192.9L425.881 193.641V194.988L426.635 195.531L425.856 195.988V196.766L426.808 197.816L428.648 196.68L428.846 187.366C429.634 187.014 430.304 186.442 430.775 185.719C431.246 184.996 431.498 184.152 431.502 183.289ZM427.079 179.917C427.319 179.934 427.549 180.02 427.741 180.166C427.932 180.311 428.077 180.51 428.157 180.736C428.238 180.963 428.25 181.208 428.193 181.442C428.136 181.676 428.012 181.888 427.836 182.052C427.661 182.216 427.441 182.325 427.204 182.366C426.967 182.407 426.723 182.378 426.502 182.283C426.282 182.187 426.094 182.03 425.961 181.829C425.829 181.628 425.758 181.393 425.758 181.152C425.757 180.983 425.792 180.814 425.859 180.659C425.927 180.503 426.025 180.363 426.149 180.247C426.274 180.131 426.42 180.042 426.58 179.985C426.74 179.928 426.91 179.905 427.079 179.917Z" fill="black"/>
<path d="M427.079 179.918C427.079 179.918 426.956 179.918 426.77 179.918C426.489 179.983 426.24 180.145 426.066 180.375C425.939 180.539 425.856 180.732 425.823 180.938C425.791 181.143 425.811 181.353 425.881 181.548C425.962 181.788 426.114 181.996 426.317 182.147C426.52 182.297 426.765 182.381 427.017 182.388C427.251 182.398 427.482 182.341 427.685 182.224C427.887 182.107 428.053 181.935 428.161 181.728C428.27 181.521 428.318 181.287 428.299 181.054C428.28 180.821 428.195 180.599 428.055 180.412C427.887 180.187 427.654 180.018 427.388 179.93C427.285 179.924 427.182 179.924 427.079 179.93C427.079 179.93 427.079 179.93 427.153 179.93H427.4C427.689 179.999 427.944 180.17 428.117 180.412C428.255 180.582 428.345 180.787 428.377 181.004C428.41 181.221 428.384 181.443 428.302 181.647C428.206 181.898 428.037 182.114 427.817 182.268C427.597 182.423 427.335 182.507 427.067 182.512C426.78 182.5 426.504 182.401 426.276 182.228C426.069 182.066 425.914 181.847 425.832 181.598C425.767 181.389 425.753 181.168 425.792 180.953C425.83 180.738 425.92 180.535 426.054 180.362C426.242 180.127 426.51 179.969 426.807 179.918C426.885 179.908 426.964 179.908 427.042 179.918C427.042 179.918 427.079 179.905 427.079 179.918Z" fill="black"/>
<path d="M431.502 183.29V183.648C431.473 183.993 431.402 184.333 431.292 184.661C431.118 185.189 430.846 185.679 430.489 186.106C430.005 186.679 429.391 187.128 428.698 187.416C428.698 189.825 428.599 193.024 428.525 196.73L426.685 197.866L425.733 196.816C425.733 196.582 425.733 196.31 425.733 196.038L426.512 195.593V195.68L425.746 195.136C425.746 194.716 425.746 194.247 425.746 193.79L426.981 193.049V192.938L425.746 192.036V191.591C425.746 191.208 425.746 190.825 425.746 190.442L426.981 189.701V189.8L425.746 188.898C425.746 188.478 425.746 188.058 425.746 187.663C425.053 187.483 424.413 187.14 423.88 186.662C423.614 186.433 423.377 186.172 423.176 185.884C422.983 185.6 422.818 185.298 422.682 184.982C422.355 184.18 422.265 183.302 422.42 182.45C422.576 181.598 422.972 180.809 423.561 180.174C424.15 179.54 424.908 179.086 425.746 178.868C426.584 178.65 427.467 178.675 428.29 178.942C429.065 179.198 429.757 179.659 430.292 180.276C430.692 180.733 430.994 181.267 431.181 181.845L431.243 182.017V182.178C431.243 182.289 431.243 182.388 431.243 182.487C431.252 182.643 431.252 182.8 431.243 182.956C431.243 182.833 431.243 182.672 431.181 182.487C431.119 182.302 431.181 182.302 431.107 182.19V182.03L431.045 181.857C430.86 181.286 430.557 180.759 430.156 180.313C429.613 179.733 428.927 179.307 428.167 179.077C427.359 178.815 426.492 178.789 425.67 179.003C424.848 179.217 424.104 179.663 423.527 180.287C422.95 180.911 422.563 181.687 422.414 182.523C422.264 183.36 422.357 184.222 422.682 185.007C422.813 185.314 422.975 185.608 423.164 185.884C423.364 186.158 423.592 186.41 423.843 186.637C424.373 187.104 425.003 187.442 425.684 187.626C425.684 188.033 425.684 188.453 425.684 188.861L426.919 189.763H426.981H426.907L425.672 190.504C425.672 190.887 425.672 191.27 425.672 191.653V192.073L426.907 192.975L425.672 193.716C425.672 194.185 425.672 194.642 425.672 195.062L426.425 195.618L425.647 196.075C425.647 196.347 425.647 196.619 425.647 196.853L426.598 197.903L428.439 196.767C428.525 193.061 428.587 189.862 428.649 187.453C429.332 187.189 429.941 186.765 430.428 186.217C430.779 185.795 431.055 185.314 431.243 184.797C431.342 184.47 431.417 184.135 431.465 183.796V183.525C431.501 183.452 431.514 183.37 431.502 183.29Z" fill="black"/>
<path d="M431.033 183.055C431.049 182.211 430.828 181.38 430.394 180.655C429.96 179.931 429.331 179.344 428.579 178.961C427.827 178.577 426.982 178.413 426.141 178.488C425.3 178.562 424.497 178.872 423.824 179.381C423.151 179.89 422.635 180.579 422.334 181.368C422.034 182.157 421.962 183.014 422.127 183.842C422.291 184.67 422.685 185.435 423.264 186.05C423.843 186.664 424.583 187.103 425.4 187.317V188.552L426.635 189.454L425.4 190.195V191.764L426.635 192.666L425.4 193.407V194.753L426.153 195.297L425.375 195.754V196.532L426.326 197.582L428.167 196.446L428.352 187.132C429.144 186.782 429.818 186.212 430.293 185.489C430.769 184.766 431.025 183.921 431.033 183.055ZM426.61 179.683C426.85 179.7 427.08 179.786 427.271 179.932C427.463 180.077 427.608 180.276 427.688 180.502C427.768 180.729 427.781 180.974 427.724 181.208C427.667 181.441 427.543 181.653 427.367 181.818C427.192 181.982 426.972 182.091 426.735 182.132C426.498 182.173 426.254 182.144 426.033 182.049C425.812 181.953 425.624 181.795 425.492 181.595C425.36 181.394 425.289 181.159 425.288 180.918C425.286 180.747 425.32 180.578 425.386 180.421C425.453 180.263 425.552 180.122 425.676 180.004C425.8 179.887 425.947 179.797 426.108 179.739C426.269 179.682 426.44 179.658 426.61 179.67V179.683Z" fill="#EBEEEF"/>
<path d="M426.61 179.67C426.503 179.659 426.395 179.659 426.289 179.67C426.015 179.744 425.772 179.904 425.597 180.127C425.45 180.308 425.358 180.527 425.33 180.758C425.302 180.989 425.34 181.223 425.439 181.433C425.539 181.644 425.696 181.822 425.892 181.947C426.088 182.072 426.315 182.139 426.548 182.141C426.782 182.15 427.013 182.094 427.216 181.977C427.418 181.86 427.583 181.688 427.692 181.481C427.801 181.274 427.848 181.04 427.83 180.807C427.811 180.574 427.726 180.351 427.586 180.165C427.418 179.939 427.185 179.771 426.919 179.683C426.819 179.648 426.715 179.627 426.61 179.621H426.684H426.919C427.212 179.687 427.471 179.859 427.648 180.103C427.785 180.274 427.875 180.478 427.908 180.695C427.94 180.912 427.914 181.134 427.833 181.338C427.737 181.589 427.568 181.805 427.348 181.96C427.127 182.114 426.866 182.198 426.598 182.203C426.311 182.191 426.035 182.092 425.807 181.919C425.527 181.697 425.346 181.374 425.305 181.02C425.263 180.665 425.364 180.309 425.585 180.029C425.773 179.793 426.041 179.635 426.338 179.584C426.416 179.574 426.495 179.574 426.573 179.584L426.61 179.67Z" fill="black"/>
<path d="M431.032 183.055V183.413C431.003 183.754 430.932 184.09 430.822 184.414C430.651 184.947 430.379 185.442 430.019 185.871C429.532 186.446 428.914 186.896 428.216 187.181C428.216 189.589 428.117 192.789 428.043 196.495L426.202 197.631L425.251 196.581C425.251 196.347 425.251 196.075 425.251 195.803L426.029 195.358V195.408L425.263 194.852C425.263 194.432 425.263 193.962 425.263 193.505L426.499 192.764V192.863L425.263 191.961V191.517C425.263 191.134 425.263 190.751 425.263 190.368L426.499 189.627V189.725L425.263 188.824C425.263 188.404 425.263 187.984 425.263 187.588C424.568 187.406 423.925 187.063 423.386 186.588C423.123 186.354 422.891 186.088 422.694 185.797C422.498 185.519 422.333 185.221 422.2 184.908C421.79 183.914 421.747 182.807 422.077 181.784C422.408 180.761 423.092 179.889 424.006 179.323C424.921 178.758 426.006 178.536 427.069 178.696C428.132 178.857 429.103 179.391 429.809 180.201C430.212 180.657 430.515 181.191 430.699 181.77L430.761 181.943V182.104C430.761 182.215 430.761 182.314 430.822 182.412C430.884 182.511 430.822 182.758 430.822 182.882V183.055C430.825 183.022 430.825 182.989 430.822 182.956V182.659C430.822 182.536 430.822 182.375 430.822 182.19C430.822 182.005 430.822 182.005 430.748 181.894V181.733L430.686 181.56C430.498 180.995 430.198 180.473 429.805 180.025C429.411 179.577 428.932 179.212 428.396 178.952C427.86 178.692 427.277 178.542 426.682 178.51C426.086 178.479 425.491 178.566 424.93 178.768C424.365 178.973 423.848 179.29 423.409 179.7C422.969 180.11 422.618 180.604 422.374 181.153C422.131 181.702 422.001 182.295 421.992 182.895C421.983 183.496 422.096 184.092 422.323 184.648C422.455 184.956 422.616 185.25 422.805 185.525C423.002 185.802 423.23 186.055 423.485 186.279C424.011 186.743 424.636 187.081 425.313 187.267C425.313 187.675 425.313 188.095 425.313 188.502L426.548 189.404L425.313 190.145V191.294V191.665L426.548 192.567L425.313 193.308C425.313 193.777 425.313 194.234 425.313 194.654L426.066 195.21H426.128H426.054L425.288 195.667C425.288 195.939 425.288 196.211 425.288 196.445L426.239 197.495L428.08 196.359C428.154 192.653 428.228 189.454 428.29 187.045C428.978 186.784 429.593 186.36 430.081 185.809C430.43 185.387 430.702 184.906 430.884 184.389C430.992 184.063 431.071 183.728 431.119 183.388V183.117C431.092 183.093 431.063 183.072 431.032 183.055Z" fill="black"/>
<path d="M430.489 183.055C430.485 182.73 430.443 182.407 430.365 182.092C430.283 181.721 430.141 181.367 429.946 181.042C429.701 180.6 429.369 180.214 428.97 179.905C428.492 179.531 427.934 179.273 427.339 179.152C426.814 179.036 426.27 179.034 425.744 179.145C425.218 179.256 424.722 179.477 424.288 179.794C424.124 179.903 423.971 180.027 423.831 180.165C423.687 180.301 423.554 180.45 423.436 180.609C422.93 181.267 422.649 182.07 422.634 182.899C422.618 183.728 422.869 184.541 423.349 185.217C423.459 185.38 423.583 185.533 423.72 185.674C423.852 185.818 423.996 185.951 424.152 186.069C424.447 186.3 424.776 186.483 425.128 186.613C425.778 186.873 426.487 186.95 427.178 186.835C427.781 186.738 428.352 186.501 428.846 186.143C429.25 185.845 429.597 185.477 429.871 185.056C430.075 184.735 430.229 184.386 430.328 184.019C430.412 183.703 430.465 183.381 430.489 183.055C430.489 183.055 430.489 183.055 430.489 183.117V183.315C430.499 183.413 430.499 183.513 430.489 183.611C430.473 183.753 430.448 183.893 430.415 184.031C430.318 184.403 430.164 184.757 429.958 185.081C429.693 185.519 429.344 185.901 428.933 186.205C428.391 186.6 427.759 186.852 427.094 186.941C426.43 187.029 425.754 186.951 425.128 186.712C424.768 186.578 424.431 186.39 424.127 186.156C423.967 186.032 423.818 185.896 423.67 185.761C423.522 185.625 423.411 185.452 423.287 185.279C422.796 184.581 422.54 183.744 422.558 182.891C422.576 182.037 422.866 181.212 423.386 180.535C423.51 180.375 423.658 180.226 423.794 180.078C423.939 179.941 424.096 179.817 424.263 179.708C424.575 179.478 424.921 179.299 425.288 179.176C425.966 178.953 426.69 178.91 427.388 179.053C427.998 179.184 428.569 179.454 429.056 179.843C429.454 180.167 429.789 180.561 430.044 181.005C430.23 181.342 430.368 181.704 430.452 182.079C430.482 182.218 430.503 182.358 430.514 182.499C430.525 182.602 430.525 182.706 430.514 182.808V183.055C430.514 183.055 430.501 183.055 430.489 183.055Z" fill="black"/>
<path d="M428.105 181.005C428.091 180.88 428.07 180.757 428.043 180.634C427.96 180.312 427.773 180.026 427.512 179.819C427.328 179.683 427.118 179.586 426.894 179.535C426.639 179.468 426.371 179.468 426.116 179.535C425.847 179.63 425.61 179.802 425.437 180.029C425.299 180.209 425.204 180.418 425.161 180.641C425.118 180.863 425.128 181.093 425.189 181.311C425.25 181.529 425.361 181.73 425.514 181.898C425.666 182.066 425.855 182.196 426.067 182.277C426.309 182.378 426.574 182.408 426.833 182.364C427.06 182.329 427.276 182.24 427.463 182.104C427.731 181.908 427.93 181.631 428.031 181.314C428.093 181.091 428.093 180.956 428.105 180.956V181.054C428.113 181.145 428.113 181.236 428.105 181.326C428.022 181.668 427.821 181.97 427.537 182.179C427.342 182.319 427.118 182.416 426.882 182.463C426.607 182.507 426.326 182.477 426.067 182.376C425.778 182.266 425.529 182.073 425.35 181.82C425.153 181.552 425.049 181.227 425.054 180.894C425.064 180.558 425.181 180.233 425.387 179.967C425.576 179.721 425.834 179.536 426.129 179.436C426.394 179.357 426.678 179.357 426.944 179.436C427.184 179.485 427.408 179.591 427.599 179.745C427.866 179.964 428.05 180.27 428.117 180.61C428.126 180.704 428.126 180.799 428.117 180.894C428.11 180.93 428.105 180.968 428.105 181.005Z" fill="black"/>
<path d="M427.438 196.644C427.438 196.644 427.438 194.519 427.438 191.9C427.438 189.281 427.562 187.169 427.586 187.169C427.611 187.169 427.586 189.294 427.586 191.9C427.586 194.507 427.475 196.644 427.438 196.644Z" fill="black"/>
<path d="M427.401 181.203C426.187 180.947 425.115 180.243 424.395 179.233C423.676 178.223 423.363 176.979 423.519 175.748C423.675 174.518 424.287 173.391 425.235 172.591C426.183 171.791 427.397 171.377 428.636 171.431V172.667C427.683 172.591 426.738 172.886 425.998 173.49C425.257 174.094 424.779 174.961 424.663 175.91C424.546 176.858 424.801 177.815 425.373 178.58C425.946 179.346 426.792 179.86 427.734 180.017L427.401 181.203Z" fill="#FAFAFA"/>
<path d="M427.425 178.584C427.351 178.584 427.425 178.114 427.709 177.484C428.128 176.676 428.642 175.921 429.241 175.236C429.98 174.185 430.947 173.315 432.07 172.691C431.405 173.76 430.622 174.751 429.735 175.644C429.068 176.434 428.5 177.163 428.105 177.707C427.709 178.25 427.524 178.621 427.425 178.584Z" fill="#0087D5"/>
<path d="M452.663 188.564C452.663 188.564 452.218 189.207 451.267 190.022C450.697 190.514 450.066 190.929 449.389 191.257C448.546 191.651 447.627 191.854 446.696 191.85C445.041 191.809 443.418 191.386 441.953 190.615C441.317 190.378 440.731 190.026 440.223 189.577C440.885 189.692 441.526 189.904 442.126 190.207C443.576 190.815 445.124 191.158 446.696 191.22C448.25 191.181 449.751 190.649 450.983 189.701C451.491 189.251 452.056 188.869 452.663 188.564Z" fill="#0087D5"/>
<path d="M184.554 443.617H166.123V510.767H184.554V443.617Z" fill="#67411E"/>
<path d="M291.259 339.899L52.7388 349.687L57.0345 454.364L295.555 444.576L291.259 339.899Z" fill="white"/>
<path d="M185.026 420.962C184.97 419.683 185.152 418.567 185.571 417.614C186.003 416.66 186.645 415.911 187.498 415.366C188.351 414.809 189.382 414.504 190.591 414.451C191.789 414.398 192.837 414.612 193.735 415.092C194.633 415.561 195.338 416.251 195.852 417.163C196.376 418.075 196.666 419.164 196.722 420.431C196.778 421.71 196.585 422.832 196.142 423.798C195.711 424.751 195.069 425.507 194.216 426.063C193.364 426.62 192.338 426.925 191.141 426.977C189.931 427.03 188.877 426.817 187.979 426.337C187.093 425.856 186.393 425.16 185.88 424.248C185.366 423.324 185.081 422.229 185.026 420.962ZM187.358 420.859C187.418 422.23 187.759 423.288 188.38 424.034C189.002 424.78 189.894 425.128 191.057 425.077C192.186 425.027 193.039 424.603 193.615 423.805C194.192 423.006 194.45 421.922 194.39 420.551C194.33 419.169 193.977 418.111 193.334 417.377C192.701 416.643 191.815 416.302 190.675 416.352C189.511 416.403 188.653 416.821 188.098 417.607C187.544 418.393 187.298 419.477 187.358 420.859Z" fill="black"/>
<path d="M199.281 430.186L198.83 419.906C198.814 419.549 198.787 419.187 198.748 418.819C198.708 418.452 198.658 418.09 198.596 417.735L200.687 417.644L200.957 419.467L200.767 419.475C200.913 418.857 201.255 418.357 201.792 417.976C202.34 417.583 202.983 417.37 203.72 417.337C204.492 417.304 205.174 417.458 205.766 417.802C206.357 418.134 206.829 418.632 207.182 419.298C207.533 419.952 207.73 420.751 207.772 421.695C207.813 422.64 207.687 423.459 207.395 424.153C207.102 424.846 206.676 425.39 206.116 425.784C205.556 426.166 204.89 426.374 204.118 426.408C203.392 426.44 202.745 426.289 202.177 425.957C201.608 425.624 201.218 425.162 201.008 424.571L201.198 424.563L201.44 430.092L199.281 430.186ZM203.44 424.776C204.132 424.746 204.674 424.485 205.068 423.995C205.461 423.493 205.637 422.758 205.595 421.791C205.552 420.823 205.313 420.112 204.878 419.658C204.442 419.204 203.879 418.992 203.188 419.023C202.509 419.052 201.972 419.313 201.578 419.803C201.184 420.293 201.008 421.022 201.051 421.99C201.093 422.957 201.332 423.674 201.768 424.14C202.203 424.594 202.761 424.806 203.44 424.776Z" fill="black"/>
<path d="M214.054 425.972C212.592 426.037 211.428 425.684 210.563 424.914C209.699 424.144 209.235 423.056 209.174 421.651C209.134 420.741 209.278 419.939 209.605 419.243C209.932 418.548 210.404 417.996 211.021 417.589C211.649 417.18 212.39 416.957 213.242 416.92C214.083 416.883 214.793 417.031 215.373 417.363C215.953 417.695 216.402 418.178 216.718 418.81C217.046 419.442 217.228 420.19 217.266 421.054L217.291 421.624L210.933 421.903L210.883 420.763L215.704 420.551L215.421 420.806C215.385 420 215.185 419.391 214.821 418.98C214.468 418.568 213.97 418.377 213.325 418.405C212.61 418.436 212.069 418.714 211.699 419.238C211.341 419.761 211.182 420.478 211.222 421.388L211.232 421.613C211.273 422.557 211.535 423.256 212.016 423.708C212.509 424.148 213.181 424.349 214.034 424.312C214.529 424.29 214.987 424.206 215.407 424.061C215.839 423.903 216.244 423.666 216.623 423.35L217.326 424.773C216.926 425.125 216.442 425.406 215.874 425.616C215.306 425.825 214.7 425.944 214.054 425.972Z" fill="black"/>
<path d="M219.297 425.57L219.01 419.021C218.994 418.664 218.967 418.302 218.927 417.934C218.888 417.567 218.838 417.205 218.776 416.85L220.867 416.759L221.115 418.479L220.908 418.488C221.157 417.865 221.546 417.381 222.073 417.035C222.6 416.677 223.22 416.482 223.934 416.451C224.959 416.406 225.744 416.66 226.287 417.213C226.831 417.767 227.13 418.654 227.183 419.875L227.417 425.213L225.257 425.308L225.028 420.073C224.997 419.37 224.837 418.875 224.547 418.588C224.269 418.289 223.859 418.151 223.317 418.175C222.649 418.204 222.129 418.434 221.755 418.866C221.382 419.298 221.21 419.86 221.24 420.551L221.456 425.475L219.297 425.57Z" fill="black"/>
<path d="M234.621 424.898L234.087 412.717L236.316 412.619L236.539 417.699L242.776 417.425L242.553 412.346L244.782 412.248L245.316 424.429L243.087 424.526L242.857 419.274L236.62 419.547L236.85 424.8L234.621 424.898Z" fill="black"/>
<path d="M251.775 424.319C250.877 424.358 250.091 424.208 249.418 423.868C248.746 423.528 248.21 423.027 247.812 422.363C247.425 421.699 247.211 420.901 247.17 419.968C247.129 419.035 247.273 418.226 247.6 417.543C247.939 416.847 248.429 416.3 249.069 415.903C249.71 415.506 250.479 415.287 251.377 415.248C252.276 415.208 253.061 415.359 253.734 415.698C254.418 416.038 254.954 416.539 255.341 417.203C255.739 417.855 255.958 418.648 255.999 419.581C256.04 420.514 255.891 421.328 255.552 422.024C255.225 422.719 254.735 423.265 254.083 423.663C253.443 424.061 252.674 424.279 251.775 424.319ZM251.702 422.66C252.382 422.63 252.913 422.37 253.295 421.88C253.677 421.379 253.847 420.644 253.805 419.677C253.762 418.709 253.529 417.998 253.105 417.544C252.681 417.089 252.13 416.877 251.45 416.906C250.771 416.936 250.24 417.196 249.857 417.686C249.475 418.176 249.305 418.905 249.347 419.872C249.39 420.84 249.623 421.557 250.047 422.023C250.471 422.477 251.023 422.69 251.702 422.66Z" fill="black"/>
<path d="M261.205 423.905C260.134 423.952 259.321 423.693 258.765 423.129C258.209 422.565 257.905 421.678 257.852 420.469L257.619 415.147L259.778 415.053L260.011 420.357C260.039 421.002 260.193 421.474 260.471 421.773C260.749 422.061 261.159 422.193 261.7 422.17C262.311 422.143 262.797 421.914 263.159 421.482C263.532 421.051 263.704 420.495 263.674 419.815L263.459 414.891L265.618 414.796L266.001 423.522L263.893 423.614L263.815 421.834L264.057 421.824C263.831 422.457 263.466 422.958 262.963 423.326C262.471 423.682 261.885 423.875 261.205 423.905Z" fill="black"/>
<path d="M271.463 423.455C270.714 423.488 270.019 423.432 269.378 423.287C268.748 423.13 268.213 422.9 267.773 422.596L268.314 421.118C268.765 421.398 269.258 421.607 269.795 421.745C270.332 421.883 270.871 421.941 271.413 421.917C271.989 421.892 272.411 421.775 272.678 421.567C272.958 421.359 273.09 421.087 273.076 420.753C273.064 420.488 272.963 420.285 272.772 420.143C272.592 419.99 272.304 419.881 271.909 419.818L270.167 419.565C269.423 419.436 268.846 419.185 268.438 418.81C268.04 418.435 267.828 417.931 267.8 417.297C267.776 416.756 267.899 416.272 268.169 415.844C268.45 415.417 268.857 415.076 269.388 414.822C269.93 414.555 270.57 414.406 271.307 414.374C271.952 414.346 272.561 414.406 273.133 414.554C273.716 414.701 274.211 414.939 274.618 415.267L274.057 416.694C273.688 416.422 273.269 416.215 272.801 416.074C272.333 415.933 271.881 415.872 271.443 415.891C270.844 415.918 270.411 416.046 270.144 416.277C269.877 416.497 269.75 416.773 269.765 417.107C269.776 417.361 269.866 417.57 270.035 417.736C270.215 417.89 270.485 417.999 270.846 418.064L272.588 418.317C273.366 418.432 273.959 418.672 274.368 419.035C274.787 419.386 275.011 419.884 275.039 420.529C275.064 421.105 274.931 421.607 274.638 422.035C274.345 422.463 273.927 422.799 273.384 423.042C272.84 423.285 272.2 423.423 271.463 423.455Z" fill="black"/>
<path d="M281.224 423.027C279.762 423.091 278.598 422.739 277.733 421.969C276.868 421.199 276.405 420.111 276.344 418.706C276.304 417.796 276.447 416.993 276.775 416.298C277.102 415.603 277.574 415.051 278.191 414.643C278.819 414.235 279.56 414.012 280.412 413.975C281.253 413.938 281.963 414.086 282.543 414.418C283.123 414.75 283.572 415.233 283.888 415.865C284.216 416.497 284.398 417.245 284.436 418.109L284.461 418.679L278.103 418.958L278.053 417.817L282.874 417.606L282.59 417.861C282.555 417.054 282.355 416.446 281.991 416.035C281.638 415.623 281.139 415.432 280.494 415.46C279.78 415.491 279.238 415.769 278.869 416.293C278.511 416.816 278.352 417.533 278.392 418.443L278.402 418.668C278.443 419.612 278.705 420.31 279.186 420.762C279.679 421.202 280.351 421.404 281.203 421.366C281.699 421.345 282.157 421.261 282.577 421.116C283.009 420.958 283.414 420.721 283.793 420.405L284.495 421.828C284.095 422.18 283.611 422.461 283.044 422.671C282.476 422.88 281.869 422.999 281.224 423.027Z" fill="black"/>
<path d="M295.521 444.605C295.521 444.605 295.521 443.963 295.409 442.728C295.298 441.492 295.274 439.676 295.162 437.292C294.952 432.524 294.656 425.495 294.261 416.453C293.458 398.368 292.371 372.229 290.987 339.939L291.222 340.161L52.723 350.043L53.0318 349.71C54.5389 386.46 55.9842 421.864 57.3059 454.377L56.9848 454.092L228.16 447.224L277.695 445.285L290.925 444.778L294.347 444.655H295.582H294.446L291.049 444.815L277.881 445.396L228.469 447.496L57.0959 454.661H56.7995V454.352C55.453 421.839 54.0077 386.41 52.4883 349.685V349.364H52.8342L291.345 339.679H291.568V339.939C292.803 372.303 293.878 398.492 294.582 416.601C294.928 425.631 295.199 432.66 295.385 437.404C295.471 439.775 295.533 441.579 295.57 442.802C295.607 444.025 295.521 444.605 295.521 444.605Z" fill="black"/>
<path d="M213.633 380.666L225.961 367.115L240.056 379.295L213.633 380.666Z" fill="#A5E093"/>
<path d="M235.3 375.321L218.025 376.139L218.78 392.081L236.054 391.264L235.3 375.321Z" fill="#A5E093"/>
<path d="M233.1 368.021L230.422 368.147L230.738 374.823L233.416 374.696L233.1 368.021Z" fill="#A5E093"/>
<path d="M174.56 449.484C174.375 449.484 173.325 426.1 172.089 397.231C170.854 368.362 170.101 344.953 170.274 344.941C170.447 344.929 171.509 368.325 172.744 397.206C173.98 426.088 174.733 449.484 174.56 449.484Z" fill="black"/>
<path d="M260.759 394.761C260.759 394.934 246.306 395.675 228.481 396.404C210.656 397.133 196.166 397.639 196.166 397.405C196.166 397.17 210.606 396.49 228.444 395.762C246.282 395.033 260.747 394.576 260.759 394.761Z" fill="black"/>
<path d="M242.81 400.369C242.81 400.542 236.066 400.962 227.727 401.308C219.389 401.654 212.632 401.777 212.62 401.604C212.607 401.431 219.364 401.011 227.703 400.666C236.041 400.32 242.81 400.196 242.81 400.369Z" fill="black"/>
<path d="M103.221 385.348L111.3 363.583C113.603 364.666 115.658 366.212 117.337 368.125C119.016 370.038 120.283 372.276 121.059 374.7C122.005 378.384 122.368 382.194 122.134 385.991L121.862 415.49C121.904 416.12 121.811 416.751 121.59 417.343C120.973 418.664 119.317 419.072 117.884 419.233C115.228 419.517 112.549 419.517 109.892 419.233C108.279 419.212 106.731 418.596 105.544 417.503C104.77 416.442 104.315 415.182 104.234 413.871C102.777 404.437 102.437 394.863 103.221 385.348Z" fill="black"/>
<path d="M117.551 411.586L105.371 409.856L90.659 410.462L78.7754 415.403L83.8401 426.15C83.8401 426.15 95.279 427.126 95.4395 427.558C95.6001 427.991 104.507 434.76 104.507 434.76L114.5 426.484L121.035 418.714L117.551 411.586Z" fill="#38B6FF"/>
<path d="M117.527 411.709C117.527 411.709 120.282 426.533 102.184 428.077C102.184 428.077 92.302 429.596 84.5073 420.257C83.2597 418.456 82.1252 416.579 81.1102 414.637L71.8208 417.997C71.8208 417.997 75.7367 451.016 77.7132 453.524L127.73 451.473L127.619 441.146L128.854 414.908L117.527 411.709Z" fill="#AC71C7"/>
<path d="M104.667 360.63C110.486 361.334 116.922 365.349 119.392 370.66C121.863 375.972 121.863 382.927 122.06 388.782C120.257 388.498 119.17 389.388 117.342 389.338C116.754 389.258 116.188 389.061 115.677 388.76C115.166 388.459 114.72 388.059 114.365 387.584C112.604 385.42 111.153 383.021 110.053 380.456C107.163 374.502 104.322 368.523 101.53 362.52L104.667 360.63Z" fill="black"/>
<path d="M101.987 363.681C105.762 363.612 109.424 364.975 112.236 367.496C115.048 370.017 116.801 373.508 117.144 377.269C117.735 382.602 118.032 387.963 118.033 393.328C117.465 400.74 113.228 403.21 111.387 403.927C110.619 404.17 109.829 404.339 109.028 404.433C109.02 404.453 109.02 404.475 109.028 404.495L110.164 413.142C110.584 418.75 107.101 423.518 101.394 423.963C95.6867 424.408 91.5114 419.874 90.9926 414.254L87.8302 379.06C87.7135 377.112 87.9906 375.161 88.6452 373.323C89.2997 371.485 90.3182 369.797 91.6397 368.362C92.9612 366.926 94.5586 365.771 96.3364 364.967C98.1142 364.163 100.036 363.725 101.987 363.681Z" fill="#38B6FF"/>
<path d="M109.015 404.433C106.271 404.543 103.534 404.089 100.973 403.099C100.973 403.099 102.542 407.027 109.324 406.743L109.015 404.433Z" fill="#0087D5"/>
<path d="M95.7347 375.714C92.9394 376.733 93.3138 402.163 95.5724 415.19C95.8274 416.205 95.8657 417.265 95.6848 418.297C95.5879 418.812 95.3278 419.28 94.9445 419.63C94.5612 419.98 94.076 420.191 93.5634 420.232C92.4278 420.232 91.6167 419.099 91.155 418.042C90.8255 416.924 90.1784 415.932 89.2956 415.19C87.898 414.349 86.0512 415.19 84.5163 414.616C83.3433 414.209 81.0597 415.788 80.6853 414.616C80.3835 413.368 80.2741 412.079 80.3609 410.796C80.4856 403.742 79.6496 397.324 79.7619 390.269C79.7294 386.432 80.009 382.599 80.5979 378.809C81.2968 374.989 85.0903 367.972 87.4987 365.005C91.7165 359.81 99.9774 355.862 105.693 360.574C105.693 360.586 104.382 372.569 95.7347 375.714Z" fill="black"/>
<path d="M71.8203 417.874C69.0308 419.344 66.6566 421.493 64.9165 424.122C63.1764 426.752 62.1265 429.777 61.8638 432.919C60.542 444.247 59.3932 454.265 59.8256 454.253L78.8491 453.351C78.9603 452.894 71.8203 417.874 71.8203 417.874Z" fill="#AC71C7"/>
<path d="M128.385 414.711C128.385 414.711 132.412 415.773 135.797 421.11C139.181 426.446 149.706 450.572 149.706 450.572L127.755 451.473L126.767 449.003L128.385 414.711Z" fill="#AC71C7"/>
<path d="M128.952 432.228C129.213 433.025 129.351 433.859 129.36 434.698C129.563 436.731 129.513 438.78 129.212 440.801C128.856 442.803 128.34 444.774 127.668 446.693C127.462 447.508 127.15 448.293 126.741 449.028C126.798 448.186 126.964 447.356 127.235 446.557C127.606 445.05 128.211 442.999 128.582 440.689C128.858 438.709 128.97 436.709 128.915 434.71C128.837 433.884 128.85 433.051 128.952 432.228Z" fill="black"/>
<path d="M74.563 430.239C75.5051 434.054 76.2391 437.918 76.7618 441.813C77.4927 445.678 78.0163 449.579 78.3306 453.499C77.3878 449.68 76.6538 445.812 76.1318 441.912C75.386 438.054 74.8622 434.157 74.563 430.239Z" fill="black"/>
<path d="M120.516 415.501H120.615C120.764 415.499 120.912 415.532 121.046 415.599C121.18 415.666 121.295 415.765 121.382 415.886C121.47 416.007 121.527 416.148 121.548 416.296C121.569 416.444 121.554 416.595 121.504 416.736C121.44 416.87 121.342 416.985 121.222 417.071C121.101 417.157 120.96 417.21 120.813 417.227C120.665 417.244 120.516 417.223 120.379 417.166C120.242 417.11 120.122 417.019 120.029 416.903C119.936 416.788 119.875 416.65 119.85 416.504C119.824 416.358 119.837 416.208 119.885 416.068C119.934 415.928 120.017 415.802 120.128 415.703C120.238 415.604 120.371 415.535 120.516 415.501Z" fill="#DDC6E8"/>
<path d="M119.009 420.726H119.108C119.259 420.721 119.408 420.752 119.544 420.819C119.679 420.885 119.796 420.983 119.884 421.106C119.972 421.228 120.028 421.37 120.048 421.519C120.068 421.669 120.051 421.821 119.998 421.962C119.933 422.095 119.836 422.21 119.715 422.296C119.594 422.382 119.454 422.435 119.306 422.452C119.159 422.469 119.01 422.448 118.873 422.391C118.736 422.335 118.615 422.244 118.523 422.128C118.43 422.013 118.368 421.875 118.343 421.729C118.318 421.583 118.33 421.433 118.379 421.293C118.428 421.153 118.511 421.028 118.621 420.928C118.731 420.829 118.865 420.76 119.009 420.726Z" fill="#DDC6E8"/>
<path d="M114.797 425.173H114.896C115.046 425.168 115.196 425.2 115.331 425.266C115.467 425.332 115.583 425.431 115.671 425.553C115.759 425.675 115.816 425.817 115.836 425.967C115.856 426.116 115.838 426.268 115.785 426.409C115.721 426.542 115.624 426.657 115.503 426.743C115.382 426.829 115.241 426.883 115.094 426.899C114.947 426.916 114.797 426.895 114.66 426.838C114.523 426.782 114.403 426.692 114.31 426.576C114.218 426.46 114.156 426.323 114.131 426.177C114.106 426.03 114.118 425.88 114.167 425.74C114.215 425.6 114.299 425.475 114.409 425.376C114.519 425.277 114.653 425.207 114.797 425.173Z" fill="#DDC6E8"/>
<path d="M107.594 428.497H107.681C107.832 428.481 107.984 428.504 108.123 428.564C108.262 428.625 108.383 428.72 108.475 428.841C108.566 428.962 108.624 429.105 108.644 429.255C108.664 429.405 108.644 429.558 108.587 429.699C108.531 429.839 108.438 429.962 108.319 430.057C108.201 430.151 108.059 430.213 107.91 430.236C107.76 430.259 107.606 430.243 107.465 430.19C107.323 430.136 107.197 430.047 107.1 429.93C107.01 429.811 106.951 429.671 106.928 429.523C106.904 429.375 106.918 429.224 106.966 429.082C107.015 428.941 107.098 428.813 107.208 428.711C107.317 428.609 107.45 428.536 107.594 428.497Z" fill="#DDC6E8"/>
<path d="M93.3391 428.683H93.4256C93.5763 428.667 93.7287 428.69 93.8678 428.75C94.0069 428.81 94.1281 428.906 94.2194 429.027C94.3107 429.148 94.3691 429.29 94.3888 429.44C94.4086 429.591 94.3891 429.744 94.3321 429.884C94.2752 430.025 94.1828 430.148 94.064 430.242C93.9452 430.336 93.804 430.398 93.6542 430.421C93.5044 430.445 93.3511 430.429 93.2093 430.375C93.0675 430.322 92.9419 430.232 92.845 430.116C92.755 429.996 92.6957 429.856 92.6723 429.708C92.649 429.561 92.6623 429.409 92.7111 429.268C92.7599 429.126 92.8426 428.999 92.9522 428.897C93.0617 428.795 93.1945 428.721 93.3391 428.683Z" fill="#DDC6E8"/>
<path d="M88.0031 425.669H88.1019C88.2534 425.66 88.4047 425.689 88.5418 425.755C88.6788 425.82 88.7972 425.919 88.8859 426.042C88.9746 426.165 89.0308 426.309 89.0492 426.459C89.0676 426.61 89.0477 426.763 88.9913 426.904C88.9269 427.037 88.8297 427.152 88.7088 427.238C88.5879 427.324 88.4472 427.378 88.2999 427.394C88.1526 427.411 88.0035 427.39 87.8665 427.334C87.7295 427.277 87.609 427.187 87.5164 427.071C87.4238 426.955 87.362 426.818 87.3369 426.672C87.3118 426.525 87.3241 426.375 87.3727 426.235C87.4213 426.095 87.5046 425.97 87.6149 425.871C87.7251 425.772 87.8586 425.702 88.0031 425.669Z" fill="#DDC6E8"/>
<path d="M83.4571 421.555C83.6818 421.568 83.8926 421.668 84.0448 421.833C84.1969 421.999 84.2785 422.218 84.272 422.443C84.2656 422.668 84.1717 422.881 84.0103 423.038C83.8489 423.195 83.6327 423.283 83.4077 423.283C83.1826 423.283 82.9664 423.195 82.805 423.038C82.6436 422.881 82.5498 422.668 82.5433 422.443C82.5369 422.218 82.6184 421.999 82.7706 421.833C82.9228 421.668 83.1336 421.568 83.3583 421.555H83.4571Z" fill="#DDC6E8"/>
<path d="M80.0843 416.205H80.1832C80.4079 416.218 80.6187 416.318 80.7708 416.484C80.923 416.65 81.0045 416.868 80.9981 417.093C80.9917 417.318 80.8978 417.532 80.7364 417.689C80.575 417.845 80.3588 417.933 80.1338 417.933C79.9087 417.933 79.6925 417.845 79.5311 417.689C79.3697 417.532 79.2758 417.318 79.2694 417.093C79.263 416.868 79.3445 416.65 79.4967 416.484C79.6488 416.318 79.8597 416.218 80.0843 416.205Z" fill="#DDC6E8"/>
<path d="M100.504 429.559H100.603C100.753 429.554 100.903 429.585 101.038 429.652C101.174 429.718 101.29 429.816 101.379 429.939C101.467 430.061 101.523 430.203 101.543 430.352C101.563 430.502 101.545 430.654 101.492 430.795C101.428 430.928 101.331 431.043 101.21 431.129C101.089 431.215 100.948 431.268 100.801 431.285C100.654 431.302 100.504 431.281 100.367 431.224C100.23 431.168 100.11 431.077 100.017 430.961C99.9248 430.846 99.863 430.708 99.8379 430.562C99.8128 430.416 99.8251 430.266 99.8737 430.126C99.9223 429.986 100.006 429.861 100.116 429.761C100.226 429.662 100.36 429.593 100.504 429.559Z" fill="#DDC6E8"/>
<path d="M152.967 432.239C151.488 431.451 150.28 430.237 149.496 428.756C148.755 426.742 147.285 414.439 147.285 414.439C147.285 414.439 148.853 413.92 149.965 416.193C150.731 417.998 151.39 419.846 151.942 421.727C151.942 421.727 153.177 414.624 153.548 412.178C153.906 410.041 154.585 406.817 155.722 406.706C156.858 406.595 156.228 410.758 156.327 412.561C156.426 414.365 156.488 416.909 156.488 416.909C156.488 416.909 158.106 408.497 159.181 406.335C159.959 404.754 161.799 405.989 161.281 407.929C161.281 407.929 162.639 406.224 163.134 407.929C163.628 409.633 161.898 417.873 162.504 417.885C163.109 417.898 164.863 411.264 165.901 410.918C166.494 410.708 166.963 411.523 166.592 413.241C166.222 414.958 163.319 427.805 162.491 429.46C162.157 430.318 161.555 431.046 160.774 431.535L152.967 432.239Z" fill="#38B6FF"/>
<path d="M152.918 430.387L149.002 450.597L161.763 450.078L160.984 430.918L152.918 430.387Z" fill="#38B6FF"/>
<path d="M161.281 422.951C161.281 423.062 160.577 423.049 159.601 423.506C158.973 423.796 158.416 424.217 157.966 424.741C157.516 425.266 157.185 425.881 156.994 426.545C156.994 426.693 156.933 426.829 156.895 426.965L156.735 427.719L156.315 427.101C155.947 426.581 155.47 426.148 154.918 425.832C154.365 425.517 153.75 425.326 153.115 425.273C152.127 425.186 151.522 425.433 151.485 425.335C151.949 424.965 152.537 424.788 153.128 424.841C153.854 424.829 154.572 424.996 155.219 425.328C155.865 425.66 156.42 426.146 156.834 426.743L156.253 426.879C156.253 426.718 156.315 426.545 156.352 426.385C156.564 425.633 156.951 424.942 157.481 424.369C158.011 423.795 158.67 423.356 159.403 423.086C159.987 422.795 160.661 422.746 161.281 422.951Z" fill="#0087D5"/>
<path d="M182.861 496.438C182.875 496.561 182.875 496.686 182.861 496.809C182.861 497.081 182.75 497.426 182.688 497.859C182.472 499.235 182.02 500.564 181.354 501.787C180.843 502.666 180.127 503.408 179.266 503.949C178.744 504.277 178.158 504.492 177.547 504.579C176.937 504.667 176.314 504.624 175.721 504.455C174.367 504.036 173.198 503.164 172.41 501.985C171.548 500.697 170.909 499.273 170.52 497.772C168.551 490.524 167.546 483.048 167.531 475.537C167.531 473.412 167.457 471.238 167.432 469.027C167.257 466.734 167.475 464.428 168.074 462.208C168.447 461.005 169.235 459.973 170.299 459.298C171.363 458.624 172.633 458.35 173.88 458.527C175.139 458.67 176.333 459.162 177.327 459.948C178.296 460.763 179.065 461.79 179.575 462.949C180.532 465.248 180.819 467.77 180.403 470.225C180.081 472.622 179.439 474.882 178.92 477.118C178.401 479.354 177.833 481.553 177.314 483.702C177.03 484.789 176.833 485.827 176.487 486.926C176.293 487.465 176.023 487.973 175.684 488.434C175.506 488.686 175.276 488.897 175.01 489.053C174.744 489.208 174.447 489.305 174.14 489.335C173.831 489.339 173.526 489.272 173.248 489.139C172.969 489.007 172.725 488.812 172.534 488.569C172.184 488.15 171.9 487.679 171.694 487.174C171.246 486.244 170.87 485.282 170.57 484.295C169.45 480.633 169.339 476.737 170.249 473.017C170.45 472.179 170.702 471.354 171.002 470.546C171.273 469.745 171.66 468.987 172.151 468.298C172.412 467.944 172.767 467.67 173.176 467.508C173.392 467.435 173.621 467.414 173.847 467.446C174.072 467.478 174.286 467.563 174.473 467.693C174.77 467.964 175.01 468.292 175.179 468.657C175.349 469.021 175.445 469.416 175.461 469.818C175.637 471.17 175.732 472.531 175.746 473.894C175.775 476.079 175.605 478.262 175.239 480.416C175.008 481.777 174.694 483.121 174.3 484.444C174.164 484.888 174.041 485.234 173.967 485.456C173.932 485.578 173.882 485.694 173.819 485.802C173.819 485.802 173.819 485.679 173.905 485.444L174.177 484.406C174.399 483.492 174.72 482.146 174.992 480.379C175.308 478.237 175.44 476.071 175.387 473.906C175.35 472.555 175.239 471.206 175.054 469.867C175.021 469.178 174.724 468.528 174.226 468.051C174.079 467.966 173.916 467.913 173.748 467.893C173.579 467.874 173.408 467.89 173.246 467.94C173.083 467.99 172.933 468.073 172.804 468.183C172.675 468.294 172.571 468.43 172.497 468.582C172.046 469.235 171.697 469.951 171.459 470.707C171.161 471.513 170.918 472.339 170.73 473.178C170.322 474.926 170.139 476.719 170.187 478.514C170.239 480.437 170.551 482.344 171.113 484.184C171.405 485.142 171.773 486.076 172.213 486.976C172.608 487.865 173.213 488.841 174.103 488.792C174.992 488.742 175.585 487.705 175.919 486.766C176.252 485.827 176.437 484.666 176.709 483.616C177.228 481.458 177.759 479.259 178.303 477.019C178.821 474.783 179.464 472.511 179.773 470.188C180.167 467.855 179.898 465.458 178.994 463.271C178.521 462.203 177.812 461.257 176.919 460.503C176.021 459.802 174.941 459.373 173.806 459.268C172.696 459.117 171.568 459.348 170.607 459.923C169.689 460.525 168.998 461.416 168.643 462.455C168.066 464.608 167.857 466.842 168.025 469.064C168.025 471.271 168.05 473.433 168.099 475.549C168.075 483.052 169.026 490.527 170.928 497.785C171.297 499.24 171.902 500.626 172.719 501.886C173.452 502.989 174.536 503.812 175.795 504.221C176.341 504.386 176.917 504.434 177.483 504.362C178.049 504.289 178.594 504.098 179.081 503.801C179.912 503.291 180.61 502.593 181.119 501.762C181.794 500.576 182.27 499.286 182.527 497.945L182.762 496.908C182.779 496.748 182.812 496.591 182.861 496.438Z" fill="#D6A273"/>
<path d="M160.552 516.413C160.441 516.413 159.947 514.782 158.835 512.238C155.936 505.594 151.433 499.774 145.728 495.302C143.554 493.585 142.022 492.683 142.134 492.584C142.518 492.716 142.884 492.899 143.221 493.128C144.183 493.672 145.111 494.274 146 494.931C151.947 499.277 156.542 505.217 159.255 512.065C159.669 513.092 160.019 514.144 160.305 515.215C160.445 515.6 160.528 516.004 160.552 516.413Z" fill="black"/>
<path d="M130.027 496.908C130.383 496.852 130.746 496.852 131.102 496.908C132.085 497.005 133.059 497.175 134.017 497.415C137.186 498.197 140.193 499.531 142.899 501.355C145.611 503.175 147.985 505.453 149.916 508.088C150.498 508.872 151.022 509.698 151.485 510.558C151.806 511.176 151.966 511.522 151.917 511.547C151.867 511.571 151.065 510.311 149.545 508.335C145.555 503.281 140.082 499.604 133.894 497.822C131.534 497.217 130.015 497.02 130.027 496.908Z" fill="black"/>
<path d="M200.044 475.056C200.143 475.142 198.413 476.699 196.165 479.651C194.856 481.381 193.683 483.211 192.657 485.123C191.418 487.47 190.388 489.921 189.581 492.449C188.812 494.99 188.267 497.594 187.95 500.231C187.703 502.387 187.625 504.56 187.716 506.729C187.889 510.435 188.432 512.695 188.296 512.72C188.107 512.211 187.967 511.686 187.876 511.151C187.727 510.533 187.615 509.905 187.543 509.273C187.407 508.455 187.316 507.631 187.271 506.803C187.105 504.61 187.134 502.407 187.357 500.219C187.891 494.818 189.526 489.583 192.163 484.839C193.237 482.911 194.477 481.08 195.869 479.367C196.385 478.703 196.938 478.068 197.524 477.464C197.941 476.981 198.391 476.527 198.87 476.106C199.222 475.713 199.615 475.361 200.044 475.056Z" fill="black"/>
<path d="M204.072 486.111C204.133 486.222 202.713 486.84 200.773 488.322C199.647 489.194 198.612 490.179 197.685 491.262C196.559 492.595 195.586 494.049 194.782 495.598C193.994 497.171 193.389 498.829 192.979 500.539C192.648 501.929 192.458 503.348 192.411 504.776C192.411 507.247 192.682 508.717 192.559 508.742C192.404 508.414 192.304 508.064 192.262 507.704C192.168 507.297 192.102 506.884 192.065 506.469C191.997 505.911 191.964 505.35 191.966 504.789C191.938 503.323 192.083 501.859 192.398 500.428C193.165 496.9 194.833 493.631 197.241 490.941C198.215 489.846 199.314 488.867 200.514 488.026C200.963 487.692 201.438 487.394 201.935 487.136C202.291 486.909 202.667 486.715 203.059 486.556C203.701 486.197 204.059 486.061 204.072 486.111Z" fill="black"/>
<path d="M213.707 496.129C208.516 498.98 204.642 503.745 202.911 509.409C202.918 508.526 203.099 507.653 203.442 506.839C204.126 504.827 205.164 502.954 206.505 501.305C207.854 499.661 209.475 498.261 211.298 497.167C212.027 496.669 212.845 496.317 213.707 496.129Z" fill="black"/>
</svg>
